<?xml version="1.0" encoding="utf-8"?>
<svg version="1.1" xmlns:xlink="http://www.w3.org/1999/xlink" width="26px" height="24px" xmlns="http://www.w3.org/2000/svg">
  <g transform="matrix(1 0 0 1 -55 -241 )">
    <path d="M 24.6734693877551 4.796875  C 25.0688275310124 4.953125  25.3757503001201 5.17708333333333  25.594237695078 5.46875  C 26.0104041616647 6.0625  26.1040416166467 6.734375  25.875150060024 7.484375  L 21.5834333733493 21.640625  C 21.3857543017207 22.3072916666667  20.9877951180472 22.8671875  20.3895558223289 23.3203125  C 19.7913165266106 23.7734375  19.1540616246499 24  18.4777911164466 24  L 4.07322929171669 24  C 3.27210884353741 24  2.49959983993597 23.7213541666667  1.75570228091237 23.1640625  C 1.01180472188876 22.6067708333333  0.494197679071629 21.921875  0.202881152460984 21.109375  C -0.0468187274909964 20.4114583333333  -0.0572228891556623 19.75  0.171668667466987 19.125  C 0.171668667466987 19.0833333333333  0.187274909963986 18.9427083333333  0.218487394957983 18.703125  C 0.249699879951981 18.4635416666667  0.270508203281313 18.2708333333333  0.280912364945978 18.125  C 0.291316526610644 18.0416666666667  0.275710284113645 17.9296875  0.234093637454982 17.7890625  C 0.192476990796319 17.6484375  0.17687074829932 17.546875  0.187274909963986 17.484375  C 0.208083233293317 17.3697916666667  0.249699879951981 17.2604166666667  0.312124849939976 17.15625  C 0.374549819927971 17.0520833333333  0.460384153661465 16.9296875  0.569627851140456 16.7890625  C 0.678871548619448 16.6484375  0.764705882352941 16.5260416666667  0.827130852340936 16.421875  C 1.06642657062825 16.0260416666667  1.30052020808323 15.5494791666667  1.52941176470588 14.9921875  C 1.75830332132853 14.4348958333333  1.91436574629852 13.9583333333333  1.99759903961585 13.5625  C 2.02881152460984 13.4583333333333  2.03141256502601 13.3020833333333  2.00540216086435 13.09375  C 1.97939175670268 12.8854166666667  1.97679071628651 12.7395833333333  1.99759903961585 12.65625  C 2.02881152460984 12.5416666666667  2.1172468987595 12.3958333333333  2.26290516206483 12.21875  C 2.40856342537015 12.0416666666667  2.49699879951981 11.921875  2.52821128451381 11.859375  C 2.74669867947179 11.484375  2.96518607442977 11.0052083333333  3.18367346938776 10.421875  C 3.40216086434574 9.83854166666666  3.53221288515406 9.36979166666666  3.57382953181273 9.015625  C 3.58423369347739 8.921875  3.57122849139656 8.75520833333333  3.53481392557023 8.515625  C 3.4983993597439 8.27604166666667  3.50100040016006 8.13020833333333  3.54261704681873 8.078125  C 3.58423369347739 7.94270833333333  3.69867947178872 7.78385416666666  3.8859543817527 7.6015625  C 4.07322929171669 7.41927083333333  4.18767507002801 7.30208333333333  4.22929171668667 7.25  C 4.42697078831533 6.97916666666667  4.64805922368948 6.5390625  4.89255702280912 5.9296875  C 5.13705482192877 5.3203125  5.28011204481793 4.81770833333333  5.32172869147659 4.421875  C 5.33213285314126 4.33854166666666  5.31652661064426 4.20572916666666  5.27490996398559 4.0234375  C 5.23329331732693 3.84114583333333  5.22288915566227 3.703125  5.2436974789916 3.609375  C 5.26450580232093 3.52604166666666  5.31132452981193 3.43229166666666  5.38415366146459 3.328125  C 5.45698279311725 3.22395833333333  5.55062024809924 3.10416666666666  5.66506602641056 2.96875  C 5.77951180472189 2.83333333333333  5.86794717887155 2.72395833333333  5.93037214885954 2.640625  C 6.01360544217687 2.515625  6.09943977591036 2.35677083333333  6.18787515006002 2.1640625  C 6.27631052420968 1.97135416666666  6.35434173669468 1.7890625  6.42196878751501 1.6171875  C 6.48959583833533 1.4453125  6.57282913165266 1.2578125  6.67166866746699 1.0546875  C 6.77050820328131 0.851562500000001  6.87194877951181 0.684895833333332  6.97599039615846 0.554687499999999  C 7.08003201280512 0.424479166666663  7.21788715486195 0.302083333333331  7.38955582232893 0.1875  C 7.56122448979592 0.0729166666666634  7.74849939975991 0.013020833333333  7.95138055222089 0.00781250000000089  C 8.15426170468187 0.00260416666666341  8.40136054421769 0.0312500000000009  8.69267707082833 0.09375  L 8.67707082833133 0.140625  C 9.07242897158864 0.046875  9.33773509403762 0  9.47298919567827 0  L 21.3493397358944 0  C 22.1192476990796 0  22.7122849139656 0.291666666666664  23.1284513805522 0.875000000000001  C 23.5446178471389 1.45833333333333  23.6382553021209 2.13541666666666  23.4093637454982 2.90625  L 19.1332533013205 17.0625  C 18.7587034813926 18.3020833333333  18.3867547018808 19.1015625  18.0174069627851 19.4609375  C 17.6480592236895 19.8203125  16.9795918367347 20  16.0120048019208 20  L 2.45018007202881 20  C 2.16926770708283 20  1.97158863545418 20.078125  1.85714285714286 20.234375  C 1.74269707883153 20.4010416666667  1.7374949979992 20.625  1.84153661464586 20.90625  C 2.09123649459784 21.6354166666667  2.84033613445378 22  4.08883553421369 22  L 18.4933973589436 22  C 18.7951180472189 22  19.0864345738295 21.9192708333333  19.3673469387755 21.7578125  C 19.6482593037215 21.5963541666667  19.8303321328531 21.3802083333333  19.9135654261705 21.109375  L 24.5954381752701 5.6875  C 24.6682673069228 5.45833333333333  24.6942777110844 5.16145833333333  24.6734693877551 4.796875  Z M 9.31692677070828 4.5  L 8.98919567827131 5.5  C 8.94757903161265 5.63541666666666  8.95798319327731 5.75260416666666  9.02040816326531 5.8515625  C 9.0828331332533 5.95052083333333  9.18687474989996 6  9.33253301320528 6  L 18.8211284513806 6  C 18.9563825530212 6  19.0890356142457 5.95052083333333  19.219087635054 5.8515625  C 19.3491396558623 5.75260416666666  19.4349739895958 5.63541666666666  19.4765906362545 5.5  L 19.8043217286915 4.5  C 19.8459383753501 4.36458333333333  19.8355342136855 4.24739583333333  19.7731092436975 4.1484375  C 19.7106842737095 4.04947916666667  19.6066426570628 4  19.4609843937575 4  L 9.97238895558223 4  C 9.83713485394158 4  9.70448179271709 4.04947916666667  9.57442977190876 4.1484375  C 9.44437775110044 4.24739583333333  9.35854341736695 4.36458333333333  9.31692677070828 4.5  Z M 8.02160864345738 8.5  L 7.69387755102041 9.5  C 7.65226090436175 9.63541666666667  7.66266506602641 9.75260416666667  7.72509003601441 9.8515625  C 7.7875150060024 9.95052083333333  7.89155662264906 10  8.03721488595438 10  L 17.5258103241297 10  C 17.6610644257703 10  17.7937174869948 9.95052083333333  17.9237695078031 9.8515625  C 18.0538215286114 9.75260416666667  18.1396558623449 9.63541666666667  18.1812725090036 9.5  L 18.5090036014406 8.5  C 18.5506202480992 8.36458333333333  18.5402160864346 8.24739583333333  18.4777911164466 8.1484375  C 18.4153661464586 8.04947916666667  18.3113245298119 8  18.1656662665066 8  L 8.67707082833133 8  C 8.54181672669068 8  8.40916366546619 8.04947916666667  8.27911164465786 8.1484375  C 8.14905962384954 8.24739583333333  8.06322529011605 8.36458333333333  8.02160864345738 8.5  Z " fill-rule="nonzero" fill="#666666" stroke="none" transform="matrix(1 0 0 1 55 241 )" />
  </g>
</svg>