<?xml version="1.0" encoding="utf-8"?>
<svg version="1.1" xmlns:xlink="http://www.w3.org/1999/xlink" width="18px" height="20px" xmlns="http://www.w3.org/2000/svg">
  <g transform="matrix(1 0 0 1 -319 -10 )">
    <path d="M 17.88046875 14.4596354166667  C 17.96015625 15.1150173611111  18 15.8116319444444  18 16.5494791666667  C 18 17.4956597222222  17.70703125 18.3072916666667  17.12109375 18.984375  C 16.53515625 19.6614583333333  15.8296875 20  15.0046875 20  L 2.9953125 20  C 2.1703125 20  1.46484375 19.6614583333333  0.87890625 18.984375  C 0.29296875 18.3072916666667  0 17.4956597222222  0 16.5494791666667  C 0 15.8116319444444  0.0398437500000001 15.1150173611111  0.11953125 14.4596354166667  C 0.19921875 13.8042534722222  0.346875 13.14453125  0.5625 12.48046875  C 0.778125 11.81640625  1.05234375 11.2478298611111  1.38515625 10.7747395833333  C 1.71796875 10.3016493055556  2.15859375 9.91536458333333  2.70703125 9.61588541666667  C 3.25546875 9.31640625  3.8859375 9.16666666666667  4.5984375 9.16666666666667  C 5.8265625 10.2777777777778  7.29375 10.8333333333333  9 10.8333333333333  C 10.70625 10.8333333333333  12.1734375 10.2777777777778  13.4015625 9.16666666666667  C 14.1140625 9.16666666666667  14.74453125 9.31640625  15.29296875 9.61588541666667  C 15.84140625 9.91536458333333  16.28203125 10.3016493055556  16.61484375 10.7747395833333  C 16.94765625 11.2478298611111  17.221875 11.81640625  17.4375 12.48046875  C 17.653125 13.14453125  17.80078125 13.8042534722222  17.88046875 14.4596354166667  Z M 12.81796875 1.46484375  C 13.87265625 2.44140625  14.4 3.61979166666667  14.4 5  C 14.4 6.38020833333333  13.87265625 7.55859375  12.81796875 8.53515625  C 11.76328125 9.51171875  10.490625 10  9 10  C 7.509375 10  6.23671875 9.51171875  5.18203125 8.53515625  C 4.12734375 7.55859375  3.6 6.38020833333333  3.6 5  C 3.6 3.61979166666667  4.12734375 2.44140625  5.18203125 1.46484375  C 6.23671875 0.48828125  7.509375 0  9 0  C 10.490625 0  11.76328125 0.48828125  12.81796875 1.46484375  Z " fill-rule="nonzero" fill="#1989fa" stroke="none" transform="matrix(1 0 0 1 319 10 )" />
  </g>
</svg>