<?xml version="1.0" encoding="utf-8"?>
<svg version="1.1" xmlns:xlink="http://www.w3.org/1999/xlink" width="8px" height="15px" xmlns="http://www.w3.org/2000/svg">
  <g transform="matrix(1 0 0 1 -14 -14 )">
    <path d="M 7.38304709694603 14.77933733576  C 7.28371443093044 14.8857651755593  7.15358675204197 14.938979103782  7.0234590731535 14.938979103782  C 6.89333139426492 14.938979103782  6.76320371537645 14.8857651755593  6.66387104936086 14.77933733576  L 0.221843292791164 7.87716473943535  C 0.0231779918324264 7.66447939786043  0.0231779918324264 7.31930433238639  0.221843292791164 7.10663601962001  L 6.66387104936086 0.204446377840912  C 6.8625363503196 -0.00840930175779623  7.18436588689633 -0.00840930175779623  7.38303118785518 0.204446377840912  C 7.58169648881403 0.417131719415827  7.58169648881403 0.762306784889932  7.38303118785518 0.974975097656251  L 1.30059145507812 7.49189185680044  L 7.38304709694603 14.0088086159446  C 7.58171239790488 14.2214939575195  7.58171239790488 14.5666690229936  7.38304709694603 14.77933733576  Z " fill-rule="nonzero" fill="#1989fa" stroke="none" transform="matrix(1 0 0 1 14 14 )" />
  </g>
</svg>