<?xml version="1.0" encoding="utf-8"?>
<svg version="1.1" xmlns:xlink="http://www.w3.org/1999/xlink" width="9px" height="15px" xmlns="http://www.w3.org/2000/svg">
  <g transform="matrix(1 0 0 1 -354 -18 )">
    <path d="M 7.87212208830192 8.07302756219161  C 7.92104644325673 8.01808879009042  7.94694755859376 7.95084932026116  7.98033742547295 7.88795320852176  C 7.98955908717124 7.86882244551805  8.00450561266456 7.85280831106093  8.01258230879944 7.83304760742185  C 8.17089790810053 7.48023929636105  8.11906469983552 7.04852073910359  7.83873223941202 6.76477545487257  L 1.48404466745467 0.325037225020545  C 1.13748949424343 -0.0259143773130128  0.591214041940873 -0.00927028294609857  0.263071250514088 0.361442023026411  C -0.0644835783306803 0.732751137181375  -0.049506111225412 1.3180462646484  0.297049061986058 1.66962782689138  L 5.99894786698212 7.44880781635483  L 0.319484321032007 13.3137280787417  C -0.0236049958880926 13.668359946803  -0.0339716411390896 14.253688225997  0.297049061986058 14.6219138826069  C 0.466288309518973 14.8106353310033  0.692528590152051 14.9050292069285  0.918768870785414 14.9050292069285  C 1.13464252415702 14.9050292069285  1.35051615953938 14.8186921258224  1.51802247892687 14.6459848118832  L 7.81515199681343 8.14331733783921  C 7.8272515702098 8.13035350920018  7.83183145045246 8.11248266601569  7.84393102384882 8.09892204846839  C 7.85315268554689 8.0896716565584  7.86293136821553 8.08287476228417  7.87212208830192 8.07302756219161  Z " fill-rule="nonzero" fill="#969799" stroke="none" transform="matrix(1 0 0 1 354 18 )" />
  </g>
</svg>