<?xml version="1.0" encoding="utf-8"?>
<svg version="1.1" xmlns:xlink="http://www.w3.org/1999/xlink" width="209px" height="120px" xmlns="http://www.w3.org/2000/svg">
  <g transform="matrix(1 0 0 1 -97 -105 )">
    <path d="M 98 113  A 7 7 0 0 1 105 106 L 298 106  A 7 7 0 0 1 305 113 L 305 217  A 7 7 0 0 1 298 224 L 105 224  A 7 7 0 0 1 98 217 L 98 113  Z " fill-rule="nonzero" fill="#000000" stroke="none" fill-opacity="0.698039215686274" />
    <path d="M 97.5 113  A 7.5 7.5 0 0 1 105 105.5 L 298 105.5  A 7.5 7.5 0 0 1 305.5 113 L 305.5 217  A 7.5 7.5 0 0 1 298 224.5 L 105 224.5  A 7.5 7.5 0 0 1 97.5 217 L 97.5 113  Z " stroke-width="1" stroke="#000000" fill="none" stroke-opacity="0.698039215686274" />
  </g>
</svg>