<?xml version="1.0" encoding="utf-8"?>
<svg version="1.1" xmlns:xlink="http://www.w3.org/1999/xlink" width="227px" height="120px" xmlns="http://www.w3.org/2000/svg">
  <g transform="matrix(1 0 0 1 -90 -101 )">
    <path d="M 91 109  A 7 7 0 0 1 98 102 L 309 102  A 7 7 0 0 1 316 109 L 316 213  A 7 7 0 0 1 309 220 L 98 220  A 7 7 0 0 1 91 213 L 91 109  Z " fill-rule="nonzero" fill="#000000" stroke="none" fill-opacity="0.698039215686274" />
    <path d="M 90.5 109  A 7.5 7.5 0 0 1 98 101.5 L 309 101.5  A 7.5 7.5 0 0 1 316.5 109 L 316.5 213  A 7.5 7.5 0 0 1 309 220.5 L 98 220.5  A 7.5 7.5 0 0 1 90.5 213 L 90.5 109  Z " stroke-width="1" stroke="#000000" fill="none" stroke-opacity="0.698039215686274" />
  </g>
</svg>