<?xml version="1.0" encoding="utf-8"?>
<svg version="1.1" xmlns:xlink="http://www.w3.org/1999/xlink" width="31px" height="25px" xmlns="http://www.w3.org/2000/svg">
  <defs>
    <mask fill="white" id="clip217">
      <path d="M 3.88805989685594 2.32087912087911  L 3.88805989685594 0  L 30 0  L 30 13.6087912087912  L 27.7127673499306 13.6087912087912  L 27.7127673499306 15.8769230769231  L 25.8514620801591 15.8769230769231  L 25.8514620801591 18.5895967972804  C 25.8652495266019 18.5895967972804  23.3559342740211 18.2634635201352  18.4659866023253 18.5895967972804  C 13.5760389306294 18.9157300744257  11.3240893449799 23.5631292737458  7.14189725734529 23.9707958701774  C 2.95970516971068 24.378462466609  0 20.3833298215794  0 20.3833298215794  L 0 4.74725274725274  L 2.06811696641272 4.74725274725274  L 2.06811696641272 2.32087912087911  L 3.88805989685594 2.32087912087911  Z " fill-rule="evenodd" />
    </mask>
  </defs>
  <g transform="matrix(1 0 0 1 -131 -241 )">
    <path d="M 3.88805989685594 2.32087912087911  L 3.88805989685594 0  L 30 0  L 30 13.6087912087912  L 27.7127673499306 13.6087912087912  L 27.7127673499306 15.8769230769231  L 25.8514620801591 15.8769230769231  L 25.8514620801591 18.5895967972804  C 25.8652495266019 18.5895967972804  23.3559342740211 18.2634635201352  18.4659866023253 18.5895967972804  C 13.5760389306294 18.9157300744257  11.3240893449799 23.5631292737458  7.14189725734529 23.9707958701774  C 2.95970516971068 24.378462466609  0 20.3833298215794  0 20.3833298215794  L 0 4.74725274725274  L 2.06811696641272 4.74725274725274  L 2.06811696641272 2.32087912087911  L 3.88805989685594 2.32087912087911  Z " fill-rule="nonzero" fill="#666666" stroke="none" transform="matrix(1 0 0 1 131 241 )" />
    <path d="M 3.88805989685594 2.32087912087911  L 3.88805989685594 0  L 30 0  L 30 13.6087912087912  L 27.7127673499306 13.6087912087912  L 27.7127673499306 15.8769230769231  L 25.8514620801591 15.8769230769231  L 25.8514620801591 18.5895967972804  C 25.8652495266019 18.5895967972804  23.3559342740211 18.2634635201352  18.4659866023253 18.5895967972804  C 13.5760389306294 18.9157300744257  11.3240893449799 23.5631292737458  7.14189725734529 23.9707958701774  C 2.95970516971068 24.378462466609  0 20.3833298215794  0 20.3833298215794  L 0 4.74725274725274  L 2.06811696641272 4.74725274725274  L 2.06811696641272 2.32087912087911  L 3.88805989685594 2.32087912087911  Z " stroke-width="2" stroke="#797979" fill="none" transform="matrix(1 0 0 1 131 241 )" mask="url(#clip217)" />
    <path d="M 25.8514620801591 4.74725274725274  L 2.10947930574097 4.77362637362637  M 3.88805989685594 2.32087912087911  L 27.7127673499306 2.34725274725274  M 27.5 13.6087912087912  L 27.5 2.32087912087911  M 25.5 4.74725274725274  L 25.5 15.8769230769231  " stroke-width="1" stroke="#797979" fill="none" transform="matrix(1 0 0 1 131 241 )" mask="url(#clip217)" />
  </g>
</svg>