<?xml version="1.0" encoding="utf-8"?>
<svg version="1.1" xmlns:xlink="http://www.w3.org/1999/xlink" width="34px" height="24px" xmlns="http://www.w3.org/2000/svg">
  <g transform="matrix(1 0 0 1 -285 -241 )">
    <path d="M 22.5427083333333 22.8958333333333  C 22.6253472222222 23.0347222222222  22.6666666666667 23.1805555555556  22.6666666666667 23.3333333333333  C 22.6666666666667 23.5138888888889  22.6105902777778 23.6701388888889  22.4984375 23.8020833333333  C 22.3862847222222 23.9340277777778  22.2534722222222 24  22.1 24  L 5.1 24  C 5.00555555555556 24  4.92586805555556 23.9861111111111  4.8609375 23.9583333333333  C 4.79600694444444 23.9305555555556  4.74288194444445 23.8819444444444  4.7015625 23.8125  C 4.66024305555556 23.7430555555556  4.62777777777778 23.6875  4.60416666666667 23.6458333333333  C 4.58055555555556 23.6041666666667  4.56284722222222 23.5243055555556  4.55104166666667 23.40625  C 4.53923611111111 23.2881944444444  4.53333333333333 23.2083333333333  4.53333333333333 23.1666666666667  L 4.53333333333333 22.8958333333333  L 4.53333333333333 22.6666666666667  L 4.53333333333333 19.3333333333333  L 4.53333333333333 10.6666666666667  L 1.13333333333333 10.6666666666667  C 0.826388888888889 10.6666666666667  0.560763888888889 10.5347222222222  0.336458333333333 10.2708333333333  C 0.112152777777778 10.0069444444444  0 9.69444444444444  0 9.33333333333333  C 0 9  0.0885416666666667 8.71527777777778  0.265625 8.47916666666667  L 5.93229166666667 0.479166666666667  C 6.15659722222222 0.173611111111111  6.44583333333333 0.0208333333333339  6.8 0.0208333333333339  C 7.15416666666667 0.0208333333333339  7.44340277777778 0.173611111111111  7.66770833333333 0.479166666666667  L 13.334375 8.47916666666667  C 13.5114583333333 8.71527777777778  13.6 9  13.6 9.33333333333333  C 13.6 9.69444444444444  13.4878472222222 10.0069444444444  13.2635416666667 10.2708333333333  C 13.0392361111111 10.5347222222222  12.7736111111111 10.6666666666667  12.4666666666667 10.6666666666667  L 9.06666666666667 10.6666666666667  L 9.06666666666667 18.6666666666667  L 19.2666666666667 18.6666666666667  C 19.4555555555556 18.6666666666667  19.603125 18.7430555555556  19.709375 18.8958333333333  L 22.5427083333333 22.8958333333333  Z M 33.6635416666667 13.7291666666667  C 33.8878472222222 13.9930555555556  34 14.3055555555556  34 14.6666666666667  C 34 15  33.9114583333333 15.2847222222222  33.734375 15.5208333333333  L 28.0677083333333 23.5208333333333  C 27.8315972222222 23.8402777777778  27.5423611111111 24  27.2 24  C 26.8576388888889 24  26.5684027777778 23.8402777777778  26.3322916666667 23.5208333333333  L 20.665625 15.5208333333333  C 20.4885416666667 15.2847222222222  20.4 15  20.4 14.6666666666667  C 20.4 14.3055555555556  20.5121527777778 13.9930555555556  20.7364583333333 13.7291666666667  C 20.9607638888889 13.4652777777778  21.2263888888889 13.3333333333333  21.5333333333333 13.3333333333333  L 24.9333333333333 13.3333333333333  L 24.9333333333333 5.33333333333333  L 14.7333333333333 5.33333333333333  C 14.5444444444444 5.33333333333333  14.396875 5.25  14.290625 5.08333333333333  L 11.4572916666667 1.08333333333333  C 11.3746527777778 0.958333333333334  11.3333333333333 0.819444444444444  11.3333333333333 0.666666666666667  C 11.3333333333333 0.486111111111109  11.3894097222222 0.32986111111111  11.5015625 0.197916666666667  C 11.6137152777778 0.0659722222222188  11.7465277777778 0  11.9 0  L 28.9 0  C 28.9944444444444 0  29.0741319444444 0.0138888888888866  29.1390625 0.0416666666666679  C 29.2039930555556 0.0694444444444438  29.2571180555556 0.118055555555554  29.2984375 0.1875  C 29.3397569444444 0.256944444444444  29.3722222222222 0.312500000000001  29.3958333333333 0.354166666666666  C 29.4194444444444 0.395833333333334  29.4371527777778 0.475694444444442  29.4489583333333 0.593750000000001  C 29.4607638888889 0.711805555555552  29.4666666666667 0.791666666666668  29.4666666666667 0.833333333333333  L 29.4666666666667 1.10416666666667  L 29.4666666666667 1.33333333333333  L 29.4666666666667 4.66666666666667  L 29.4666666666667 13.3333333333333  L 32.8666666666667 13.3333333333333  C 33.1736111111111 13.3333333333333  33.4392361111111 13.4652777777778  33.6635416666667 13.7291666666667  Z " fill-rule="nonzero" fill="#666666" stroke="none" transform="matrix(1 0 0 1 285 241 )" />
  </g>
</svg>