<?xml version="1.0" encoding="utf-8"?>
<svg version="1.1" xmlns:xlink="http://www.w3.org/1999/xlink" width="27px" height="26px" xmlns="http://www.w3.org/2000/svg">
  <g transform="matrix(1 0 0 1 -329 -16 )">
    <path d="M 0.54 8.39583333333333  C 0.54 8.54479166666667  0.661500000000001 8.66666666666667  0.81 8.66666666666667  L 2.7 8.66666666666667  C 2.8485 8.66666666666667  2.97 8.54479166666667  2.97 8.39583333333333  L 2.97 2.4375  L 8.91 2.4375  C 9.0585 2.4375  9.18 2.315625  9.18 2.16666666666667  L 9.18 0.270833333333333  C 9.18 0.121875000000001  9.0585 0  8.91 0  L 2.835 0  C 1.566 0  0.54 1.02916666666667  0.54 2.30208333333333  L 0.54 8.39583333333333  Z M 17.82 2.16666666666667  C 17.82 2.315625  17.9415 2.4375  18.09 2.4375  L 24.03 2.4375  L 24.03 8.39583333333333  C 24.03 8.54479166666667  24.1515 8.66666666666667  24.3 8.66666666666667  L 26.19 8.66666666666667  C 26.3385 8.66666666666667  26.46 8.54479166666667  26.46 8.39583333333333  L 26.46 2.30208333333333  C 26.46 1.02916666666667  25.434 0  24.165 0  L 18.09 0  C 17.9415 0  17.82 0.121875000000001  17.82 0.270833333333333  L 17.82 2.16666666666667  Z M 9.18 23.8333333333333  C 9.18 23.684375  9.0585 23.5625  8.91 23.5625  L 2.97 23.5625  L 2.97 17.6041666666667  C 2.97 17.4552083333333  2.8485 17.3333333333333  2.7 17.3333333333333  L 0.81 17.3333333333333  C 0.661500000000001 17.3333333333333  0.54 17.4552083333333  0.54 17.6041666666667  L 0.54 23.6979166666667  C 0.54 24.9708333333333  1.566 26  2.835 26  L 8.91 26  C 9.0585 26  9.18 25.878125  9.18 25.7291666666667  L 9.18 23.8333333333333  Z M 26.46 17.6041666666667  C 26.46 17.4552083333333  26.3385 17.3333333333333  26.19 17.3333333333333  L 24.3 17.3333333333333  C 24.1515 17.3333333333333  24.03 17.4552083333333  24.03 17.6041666666667  L 24.03 23.5625  L 18.09 23.5625  C 17.9415 23.5625  17.82 23.684375  17.82 23.8333333333333  L 17.82 25.7291666666667  C 17.82 25.878125  17.9415 26  18.09 26  L 24.165 26  C 25.434 26  26.46 24.9708333333333  26.46 23.6979166666667  L 26.46 17.6041666666667  Z M 27 12.0520833333333  C 27 11.903125  26.8785 11.78125  26.73 12  L 0.27 12  C 0.121500000000001 11.78125  0 11.903125  0 12.0520833333333  L 0 13.9479166666667  C 0 14.096875  0.121500000000001 14.21875  0.27 14  L 26.73 14  C 26.8785 14.21875  27 14.096875  27 13.9479166666667  L 27 12.0520833333333  Z " fill-rule="nonzero" fill="#f7f8fa" stroke="none" transform="matrix(1 0 0 1 329 16 )" />
  </g>
</svg>