<?xml version="1.0" encoding="utf-8"?>
<svg version="1.1" xmlns:xlink="http://www.w3.org/1999/xlink" width="24px" height="24px" xmlns="http://www.w3.org/2000/svg">
  <g transform="matrix(1 0 0 1 -212 -241 )">
    <path d="M 23.9745283018868 9.20943396226415  C 24.0509433962264 8.71415094339623  23.7056603773585 8.2556603773585  23.2103773584906 8.18207547169811  L 16.0245283018868 7.13773584905661  L 12.8122641509434 0.625471698113209  C 12.7245283018868 0.447169811320755  12.5801886792453 0.302830188679245  12.4018867924528 0.215094339622642  C 11.9547169811321 -0.00566037735849179  11.411320754717 0.178301886792454  11.1877358490566 0.625471698113209  L 7.97547169811321 7.1377358490566  L 0.789622641509435 8.18207547169811  C 0.591509433962266 8.21037735849057  0.410377358490567 8.30377358490566  0.271698113207549 8.44528301886793  C -0.0764150943396231 8.80471698113207  -0.0707547169811313 9.37641509433962  0.288679245283021 9.72735849056604  L 5.48773584905661 14.7962264150943  L 4.25943396226415 21.9537735849057  C 4.22547169811321 22.1490566037736  4.25660377358491 22.3528301886792  4.35 22.5283018867924  C 4.58207547169811 22.9698113207547  5.1311320754717 23.1424528301887  5.57264150943396 22.9075471698113  L 12 19.5283018867925  L 18.427358490566 22.9075471698113  C 18.6028301886792 23.0009433962264  18.8066037735849 23.0320754716981  19.0018867924528 22.9981132075472  C 19.4943396226415 22.9132075471698  19.8254716981132 22.4462264150943  19.7405660377358 21.9537735849057  L 18.5122641509434 14.7962264150943  L 23.711320754717 9.72735849056604  C 23.8528301886792 9.58867924528302  23.9462264150943 9.40754716981132  23.9745283018868 9.20943396226415  Z " fill-rule="nonzero" fill="#666666" stroke="none" transform="matrix(1 0 0 1 212 241 )" />
  </g>
</svg>