<?xml version="1.0" encoding="utf-8"?>
<svg version="1.1" xmlns:xlink="http://www.w3.org/1999/xlink" width="24px" height="20px" xmlns="http://www.w3.org/2000/svg">
  <g transform="matrix(1 0 0 1 -224 -11 )">
    <path d="M 1.71428571428571 16  L 1.71428571428571 18  L 15.4285714285714 18  L 15.4285714285714 16  L 1.71428571428571 16  Z M 1.71428571428571 9  L 1.71428571428571 11  L 15.4285714285714 11  L 15.4285714285714 9  L 1.71428571428571 9  Z M 22.3392857142857 18.2386363636364  C 22.5892857142857 17.9734848484848  22.7142857142857 17.6515151515152  22.7142857142857 17.2727272727273  C 22.7142857142857 16.8939393939394  22.5892857142857 16.5719696969697  22.3392857142857 16.3068181818182  C 22.0892857142857 16.0416666666667  21.7857142857143 15.9090909090909  21.4285714285714 15.9090909090909  C 21.0714285714286 15.9090909090909  20.7678571428571 16.0416666666667  20.5178571428571 16.3068181818182  C 20.2678571428571 16.5719696969697  20.1428571428571 16.8939393939394  20.1428571428571 17.2727272727273  C 20.1428571428571 17.6515151515152  20.2678571428571 17.9734848484848  20.5178571428571 18.2386363636364  C 20.7678571428571 18.5037878787879  21.0714285714286 18.6363636363636  21.4285714285714 18.6363636363636  C 21.7857142857143 18.6363636363636  22.0892857142857 18.5037878787879  22.3392857142857 18.2386363636364  Z M 1.71428571428571 2  L 1.71428571428571 4  L 15.4285714285714 4  L 15.4285714285714 2  L 1.71428571428571 2  Z M 22.3392857142857 10.9659090909091  C 22.5892857142857 10.7007575757576  22.7142857142857 10.3787878787879  22.7142857142857 10  C 22.7142857142857 9.62121212121212  22.5892857142857 9.29924242424242  22.3392857142857 9.03409090909091  C 22.0892857142857 8.76893939393939  21.7857142857143 8.63636363636363  21.4285714285714 8.63636363636363  C 21.0714285714286 8.63636363636363  20.7678571428571 8.76893939393939  20.5178571428571 9.03409090909091  C 20.2678571428571 9.29924242424242  20.1428571428571 9.62121212121212  20.1428571428571 10  C 20.1428571428571 10.3787878787879  20.2678571428571 10.7007575757576  20.5178571428571 10.9659090909091  C 20.7678571428571 11.2310606060606  21.0714285714286 11.3636363636364  21.4285714285714 11.3636363636364  C 21.7857142857143 11.3636363636364  22.0892857142857 11.2310606060606  22.3392857142857 10.9659090909091  Z M 22.3392857142857 3.69318181818182  C 22.5892857142857 3.4280303030303  22.7142857142857 3.1060606060606  22.7142857142857 2.72727272727273  C 22.7142857142857 2.34848484848485  22.5892857142857 2.02651515151515  22.3392857142857 1.76136363636364  C 22.0892857142857 1.49621212121212  21.7857142857143 1.36363636363636  21.4285714285714 1.36363636363636  C 21.0714285714286 1.36363636363636  20.7678571428571 1.49621212121212  20.5178571428571 1.76136363636364  C 20.2678571428571 2.02651515151515  20.1428571428571 2.34848484848485  20.1428571428571 2.72727272727273  C 20.1428571428571 3.1060606060606  20.2678571428571 3.4280303030303  20.5178571428571 3.69318181818182  C 20.7678571428571 3.95833333333333  21.0714285714286 4.09090909090909  21.4285714285714 4.09090909090909  C 21.7857142857143 4.09090909090909  22.0892857142857 3.95833333333333  22.3392857142857 3.69318181818182  Z M 0 14.5454545454545  L 24 14.5454545454545  L 24 20  L 0 20  L 0 14.5454545454545  Z M 0 7.27272727272727  L 24 7.27272727272727  L 24 12.7272727272727  L 0 12.7272727272727  L 0 7.27272727272727  Z M 0 0  L 24 0  L 24 5.45454545454545  L 0 5.45454545454545  L 0 0  Z " fill-rule="nonzero" fill="#cccccc" stroke="none" transform="matrix(1 0 0 1 224 11 )" />
  </g>
</svg>