<?xml version="1.0" encoding="utf-8"?>
<svg version="1.1" xmlns:xlink="http://www.w3.org/1999/xlink" width="14px" height="14px" xmlns="http://www.w3.org/2000/svg">
  <g transform="matrix(1 0 0 1 -9 -157 )">
    <path d="M 8.00540865384615 3.59375  C 8.43449519230769 3.98958333333333  8.64903846153846 4.46875  8.64903846153846 5.03125  C 8.64903846153846 5.58854166666667  8.43449519230769 6.06510416666667  8.00540865384615 6.4609375  C 7.57632211538462 6.85677083333333  7.06169871794872 7.0546875  6.46153846153846 7.0546875  C 5.86137820512821 7.0546875  5.34675480769231 6.85677083333333  4.91766826923077 6.4609375  C 4.48858173076923 6.06510416666667  4.27403846153846 5.58854166666667  4.27403846153846 5.03125  C 4.27403846153846 4.46875  4.48858173076923 3.98958333333333  4.91766826923077 3.59375  C 5.34675480769231 3.19791666666667  5.86137820512821 3  6.46153846153846 3  C 7.06169871794872 3  7.57632211538462 3.19791666666667  8.00540865384615 3.59375  Z M 7.97596153846154 6.90234375  C 8.1161858974359 6.82161458333333  8.20592948717949 6.77083333333333  8.24519230769231 6.75  C 8.50320512820513 6.75  8.73457532051282 6.79427083333333  8.93930288461538 6.8828125  C 9.14403044871795 6.97135416666667  9.31229967948718 7.09505208333333  9.44411057692308 7.25390625  C 9.57592147435897 7.41276041666667  9.68669871794872 7.58723958333333  9.77644230769231 7.77734375  C 9.8661858974359 7.96744791666667  9.93349358974359 8.17838541666667  9.97836538461538 8.41015625  C 10.0232371794872 8.64192708333333  10.0554887820513 8.85677083333333  10.0751201923077 9.0546875  C 10.0947516025641 9.25260416666667  10.1045673076923 9.45833333333333  10.1045673076923 9.671875  C 10.1045673076923 10.0208333333333  9.99379006410257 10.3294270833333  9.77223557692308 10.59765625  C 9.55068108974359 10.8658854166667  9.25480769230769 11  8.88461538461538 11  L 4.03846153846154 11  C 3.66826923076923 11  3.37239583333333 10.8658854166667  3.15084134615385 10.59765625  C 2.92928685897436 10.3294270833333  2.81850961538462 10.0208333333333  2.81850961538462 9.671875  C 2.81850961538462 9.421875  2.83112980769231 9.17838541666667  2.85637019230769 8.94140625  C 2.88161057692308 8.70442708333333  2.93349358974359 8.44791666666667  3.01201923076923 8.171875  C 3.09054487179487 7.89583333333333  3.19290865384615 7.65755208333333  3.31911057692308 7.45703125  C 3.4453125 7.25651041666667  3.62199519230769 7.08854166666667  3.84915865384615 6.953125  C 4.07632211538462 6.81770833333333  4.33854166666667 6.75  4.63581730769231 6.75  L 4.67788461538462 6.75  C 4.71714743589744 6.77083333333333  4.80689102564103 6.82161458333333  4.94711538461539 6.90234375  C 5.08733974358974 6.98307291666667  5.18689903846154 7.03776041666667  5.24579326923077 7.06640625  C 5.3046875 7.09505208333333  5.39723557692308 7.13932291666667  5.5234375 7.19921875  C 5.64963942307692 7.25911458333333  5.75340544871795 7.30078125  5.83473557692308 7.32421875  C 5.91606570512821 7.34765625  6.01422275641026 7.37109375  6.12920673076923 7.39453125  C 6.24419070512821 7.41796875  6.35496794871795 7.4296875  6.46153846153846 7.4296875  C 6.56810897435898 7.4296875  6.67888621794872 7.41796875  6.79387019230769 7.39453125  C 6.90885416666667 7.37109375  7.00701121794872 7.34765625  7.08834134615385 7.32421875  C 7.16967147435898 7.30078125  7.2734375 7.25911458333333  7.39963942307692 7.19921875  C 7.52584134615385 7.13932291666667  7.61838942307692 7.09505208333333  7.67728365384615 7.06640625  C 7.73617788461538 7.03776041666667  7.83573717948718 6.98307291666667  7.97596153846154 6.90234375  Z M 14 3.25  L 14 4.75  C 14 4.81770833333333  13.9733573717949 4.87630208333333  13.9200721153846 4.92578125  C 13.8667868589744 4.97526041666667  13.8036858974359 5  13.7307692307692 5  L 12.9230769230769 5  L 12.9230769230769 6  L 13.7307692307692 6  C 13.8036858974359 6  13.8667868589744 6.02473958333333  13.9200721153846 6.07421875  C 13.9733573717949 6.12369791666667  14 6.18229166666667  14 6.25  L 14 7.75  C 14 7.81770833333333  13.9733573717949 7.87630208333333  13.9200721153846 7.92578125  C 13.8667868589744 7.97526041666667  13.8036858974359 8  13.7307692307692 8  L 12.9230769230769 8  L 12.9230769230769 9  L 13.7307692307692 9  C 13.8036858974359 9  13.8667868589744 9.02473958333333  13.9200721153846 9.07421875  C 13.9733573717949 9.12369791666667  14 9.18229166666667  14 9.25  L 14 10.75  C 14 10.8177083333333  13.9733573717949 10.8763020833333  13.9200721153846 10.92578125  C 13.8667868589744 10.9752604166667  13.8036858974359 11  13.7307692307692 11  L 12.9230769230769 11  L 12.9230769230769 12.75  C 12.9230769230769 13.09375  12.791266025641 13.3880208333333  12.5276442307692 13.6328125  C 12.2640224358974 13.8776041666667  11.9471153846154 14  11.5769230769231 14  L 1.34615384615385 14  C 0.975961538461539 14  0.659054487179487 13.8776041666667  0.395432692307692 13.6328125  C 0.131810897435897 13.3880208333333  0 13.09375  0 12.75  L 0 1.25  C 0 0.906250000000001  0.131810897435897 0.611979166666666  0.395432692307692 0.3671875  C 0.659054487179487 0.122395833333333  0.975961538461539 0  1.34615384615385 0  L 11.5769230769231 0  C 11.9471153846154 0  12.2640224358974 0.122395833333333  12.5276442307692 0.3671875  C 12.791266025641 0.611979166666666  12.9230769230769 0.906250000000001  12.9230769230769 1.25  L 12.9230769230769 3  L 13.7307692307692 3  C 13.8036858974359 3  13.8667868589744 3.02473958333333  13.9200721153846 3.07421875  C 13.9733573717949 3.12369791666667  14 3.18229166666667  14 3.25  Z M 11.7662259615385 12.92578125  C 11.8195112179487 12.8763020833333  11.8461538461538 12.8177083333333  11.8461538461538 12.75  L 11.8461538461538 1.25  C 11.8461538461538 1.18229166666667  11.8195112179487 1.12369791666667  11.7662259615385 1.07421875  C 11.7129407051282 1.02473958333333  11.6498397435897 1  11.5769230769231 1  L 1.34615384615385 1  C 1.27323717948718 1  1.21013621794872 1.02473958333333  1.15685096153846 1.07421875  C 1.10356570512821 1.12369791666667  1.07692307692308 1.18229166666667  1 1.25  L 1 12.75  C 1.07692307692308 12.8177083333333  1.10356570512821 12.8763020833333  1.15685096153846 12.92578125  C 1.21013621794872 12.9752604166667  1.27323717948718 13  1.34615384615385 13  L 11.5769230769231 13  C 11.6498397435897 13  11.7129407051282 12.9752604166667  11.7662259615385 12.92578125  Z " fill-rule="nonzero" fill="#d7d7d7" stroke="none" transform="matrix(1 0 0 1 9 157 )" />
  </g>
</svg>