<?xml version="1.0" encoding="utf-8"?>
<svg version="1.1" xmlns:xlink="http://www.w3.org/1999/xlink" width="24px" height="20px" xmlns="http://www.w3.org/2000/svg">
  <g transform="matrix(1 0 0 1 -129 -11 )">
    <path d="M 22.7755102040816 3.99739583333333  C 23.140456182473 4.12760416666667  23.4237695078031 4.31423611111111  23.625450180072 4.55729166666667  C 24.0096038415366 5.05208333333333  24.0960384153661 5.61197916666667  23.8847539015606 6.23697916666667  L 19.9231692677071 18.0338541666667  C 19.7406962785114 18.5894097222222  19.3733493397359 19.0559895833333  18.8211284513806 19.43359375  C 18.2689075630252 19.8111979166667  17.6806722689076 20  17.0564225690276 20  L 3.75990396158463 20  C 3.02040816326531 20  2.30732292917167 19.7677951388889  1.62064825930372 19.3033854166667  C 0.933973589435774 18.8389756944444  0.456182472989196 18.2682291666667  0.187274909963986 17.5911458333333  C -0.0432172869147659 17.0095486111111  -0.0528211284513806 16.4583333333333  0.158463385354142 15.9375  C 0.158463385354142 15.9027777777778  0.172869147659064 15.7855902777778  0.201680672268908 15.5859375  C 0.230492196878751 15.3862847222222  0.249699879951981 15.2256944444444  0.259303721488595 15.1041666666667  C 0.26890756302521 15.0347222222222  0.254501800720288 14.94140625  0.21608643457383 14.82421875  C 0.177671068427371 14.70703125  0.163265306122449 14.6223958333333  0.172869147659064 14.5703125  C 0.192076830732293 14.4748263888889  0.230492196878751 14.3836805555556  0.288115246098439 14.296875  C 0.345738295318127 14.2100694444444  0.424969987995198 14.1080729166667  0.525810324129652 13.9908854166667  C 0.626650660264106 13.8736979166667  0.705882352941176 13.7717013888889  0.763505402160864 13.6848958333333  C 0.984393757503001 13.3550347222222  1.20048019207683 12.9578993055556  1.41176470588235 12.4934895833333  C 1.62304921968788 12.0290798611111  1.76710684273709 11.6319444444444  1.84393757503001 11.3020833333333  C 1.87274909963986 11.2152777777778  1.87515006002401 11.0850694444444  1.85114045618247 10.9114583333333  C 1.82713085234094 10.7378472222222  1.82472989195678 10.6163194444444  1.84393757503001 10.546875  C 1.87274909963986 10.4513888888889  1.95438175270108 10.3298611111111  2.08883553421369 10.1822916666667  C 2.22328931572629 10.0347222222222  2.30492196878752 9.93489583333333  2.33373349339736 9.8828125  C 2.53541416566627 9.5703125  2.73709483793517 9.17100694444444  2.93877551020408 8.68489583333333  C 3.14045618247299 8.19878472222222  3.26050420168067 7.80815972222222  3.29891956782713 7.51302083333333  C 3.30852340936375 7.43489583333333  3.29651860744298 7.29600694444444  3.26290516206483 7.09635416666667  C 3.22929171668667 6.89670138888889  3.23169267707083 6.77517361111111  3.27010804321729 6.73177083333333  C 3.30852340936375 6.61892361111111  3.41416566626651 6.48654513888889  3.58703481392557 6.33463541666667  C 3.75990396158463 6.18272569444444  3.8655462184874 6.08506944444444  3.90396158463385 6.04166666666667  C 4.08643457382953 5.81597222222222  4.29051620648259 5.44921875  4.51620648259304 4.94140625  C 4.74189675870348 4.43359375  4.87394957983193 4.01475694444444  4.91236494597839 3.68489583333333  C 4.92196878751501 3.61545138888889  4.90756302521008 3.50477430555555  4.86914765906363 3.35286458333333  C 4.83073229291717 3.20095486111111  4.82112845138055 3.0859375  4.84033613445378 3.0078125  C 4.85954381752701 2.93836805555555  4.90276110444178 2.86024305555555  4.96998799519808 2.7734375  C 5.03721488595438 2.68663194444444  5.12364945978391 2.58680555555555  5.22929171668667 2.47395833333333  C 5.33493397358944 2.36111111111111  5.41656662665066 2.26996527777778  5.47418967587035 2.20052083333333  C 5.55102040816327 2.09635416666667  5.63025210084034 1.96397569444444  5.71188475390156 1.80338541666667  C 5.79351740696278 1.64279513888889  5.8655462184874 1.49088541666667  5.92797118847539 1.34765625  C 5.99039615846339 1.20442708333333  6.0672268907563 1.04817708333333  6.15846338535414 0.87890625  C 6.24969987995198 0.709635416666667  6.34333733493397 0.570746527777777  6.43937575030012 0.462239583333333  C 6.53541416566627 0.353732638888886  6.66266506602641 0.251736111111109  6.82112845138055 0.15625  C 6.9795918367347 0.0607638888888862  7.15246098439376 0.0108506944444442  7.33973589435774 0.00651041666666741  C 7.52701080432173 0.00217013888888618  7.75510204081633 0.0260416666666674  8.02400960384154 0.078125  L 8.00960384153661 0.1171875  C 8.37454981992797 0.0390625  8.61944777911165 0  8.74429771908764 0  L 19.7070828331333 0  C 20.4177671068427 0  20.9651860744298 0.243055555555554  21.3493397358944 0.729166666666667  C 21.7334933973589 1.21527777777778  21.8199279711885 1.77951388888889  21.608643457383 2.421875  L 17.6614645858343 14.21875  C 17.3157262905162 15.2517361111111  16.9723889555822 15.91796875  16.6314525810324 16.2174479166667  C 16.2905162064826 16.5169270833333  15.6734693877551 16.6666666666667  14.7803121248499 16.6666666666667  L 2.26170468187275 16.6666666666667  C 2.00240096038415 16.6666666666667  1.81992797118848 16.7317708333333  1.71428571428571 16.8619791666667  C 1.60864345738295 17.0008680555556  1.60384153661465 17.1875  1.69987995198079 17.421875  C 1.93037214885954 18.0295138888889  2.6218487394958 18.3333333333333  3.77430972388956 18  L 17.0708283313325 18  C 17.3493397358944 18.3333333333333  17.6182472989196 18.2660590277778  17.8775510204082 18.1315104166667  C 18.1368547418968 17.9969618055556  18.3049219687875 17.8168402777778  18.3817527010804 17.5911458333333  L 22.703481392557 4.73958333333333  C 22.7707082833133 4.54861111111111  22.7947178871549 4.30121527777778  22.7755102040816 3.99739583333333  Z M 8.60024009603842 3.75  L 8.29771908763506 4.58333333333333  C 8.2593037214886 4.69618055555555  8.26890756302521 4.79383680555555  8.3265306122449 4.87630208333333  C 8.38415366146459 4.95876736111111  8.48019207683073 5  8.61464585834334 5  L 17.3733493397359 5  C 17.4981992797119 5  17.6206482593037 4.95876736111111  17.7406962785114 4.87630208333333  C 17.8607442977191 4.79383680555555  17.9399759903962 4.69618055555555  17.9783913565426 4.58333333333333  L 18.280912364946 3.75  C 18.3193277310924 3.63715277777778  18.3097238895558 3.53949652777778  18.2521008403361 3.45703125  C 18.1944777911164 3.37456597222222  18.0984393757503 3.33333333333333  17.9639855942377 3.33333333333333  L 9.20528211284514 3.33333333333333  C 9.08043217286915 3.33333333333333  8.95798319327731 3.37456597222222  8.83793517406963 3.45703125  C 8.71788715486194 3.53949652777778  8.63865546218488 3.63715277777778  8.60024009603842 3.75  Z M 7.40456182472989 7.08333333333333  L 7.10204081632653 7.91666666666667  C 7.06362545018007 8.02951388888889  7.07322929171669 8.12717013888889  7.13085234093638 8.20963541666667  C 7.18847539015606 8.29210069444444  7.28451380552221 8.33333333333333  7.41896758703481 8.33333333333333  L 16.1776710684274 8.33333333333333  C 16.3025210084034 8.33333333333333  16.4249699879952 8.29210069444444  16.5450180072029 8.20963541666667  C 16.6650660264106 8.12717013888889  16.7442977190876 8.02951388888889  16.7827130852341 7.91666666666667  L 17.0852340936375 7.08333333333333  C 17.1236494597839 6.97048611111111  17.1140456182473 6.87282986111111  17.0564225690276 6.79036458333333  C 16.9987995198079 6.70789930555556  16.9027611044418 6.66666666666667  16.7683073229292 6.66666666666667  L 8.00960384153661 6.66666666666667  C 7.88475390156063 6.66666666666667  7.76230492196879 6.70789930555556  7.6422569027611 6.79036458333333  C 7.52220888355342 6.87282986111111  7.44297719087635 6.97048611111111  7.40456182472989 7.08333333333333  Z " fill-rule="nonzero" fill="#cccccc" stroke="none" transform="matrix(1 0 0 1 129 11 )" />
  </g>
</svg>