<?xml version="1.0" encoding="utf-8"?>
<svg version="1.1" xmlns:xlink="http://www.w3.org/1999/xlink" width="13px" height="12px" xmlns="http://www.w3.org/2000/svg">
  <defs>
    <mask fill="white" id="clip209">
      <path d="M 1.925625 9.85546875  C 2.02854166666667 9.75911458333333  2.08 9.640625  2.08 9.5  C 2.08 9.36458333333333  2.02854166666667 9.24739583333333  1.925625 9.1484375  C 1.82270833333333 9.04947916666667  1.70083333333333 9  1.56 9  C 1.41375 9  1.29052083333333 9.04947916666667  1.1903125 9.1484375  C 1.09010416666667 9.24739583333333  1.04 9.36458333333333  1.04 9.5  C 1.04 9.640625  1.09010416666667 9.75911458333333  1.1903125 9.85546875  C 1.29052083333333 9.95182291666667  1.41375 10  1.56 10  C 1.70083333333333 10  1.82270833333333 9.95182291666667  1.925625 9.85546875  Z M 3.225625 5.1484375  C 3.32854166666667 5.24739583333333  3.38 5.36458333333333  3.38 5.5  L 3.38 10.5  C 3.38 10.6354166666667  3.32854166666667 10.7526041666667  3.225625 10.8515625  C 3.12270833333333 10.9505208333333  3.00083333333333 11  2.86 11  L 0.52 11  C 0.379166666666667 11  0.257291666666667 10.9505208333333  0.154375 10.8515625  C 0.0514583333333333 10.7526041666667  0 10.6354166666667  0 10.5  L 0 5.5  C 0 5.36458333333333  0.0514583333333333 5.24739583333333  0.154375 5.1484375  C 0.257291666666667 5.04947916666667  0.379166666666667 5  0.52 5  L 2.86 5  C 3.00083333333333 5  3.12270833333333 5.04947916666667  3.225625 5.1484375  Z M 12.536875 4.4453125  C 12.845625 4.7421875  13 5.09375  13 5.5  C 13 5.94791666666667  12.8510416666667 6.3359375  12.553125 6.6640625  C 12.634375 6.89322916666667  12.675 7.09114583333333  12.675 7.2578125  C 12.69125 7.65364583333333  12.5747916666667 8.01041666666667  12.325625 8.328125  C 12.4177083333333 8.61979166666667  12.4177083333333 8.92447916666667  12.325625 9.2421875  C 12.244375 9.5390625  12.098125 9.78385416666667  11.886875 9.9765625  C 11.935625 10.5598958333333  11.8029166666667 11.03125  11.48875 11.390625  C 11.1420833333333 11.7864583333333  10.6085416666667 11.9895833333333  9.888125 12  L 9.595625 12  L 8.978125 12  L 8.84 12  C 8.4825 12  8.0925 11.9596354166667  7.67 11.87890625  C 7.2475 11.7981770833333  6.9184375 11.72265625  6.6828125 11.65234375  C 6.4471875 11.58203125  6.12083333333333 11.4791666666667  5.70375 11.34375  C 5.0375 11.1197916666667  4.60958333333333 11.0052083333333  4.42 11  C 4.27916666666667 10.9947916666667  4.15729166666667 10.9440104166667  4.054375 10.84765625  C 3.95145833333333 10.7513020833333  3.9 10.6354166666667  3.9 10.5  L 3.9 5.4921875  C 3.9 5.36197916666667  3.94875 5.24869791666667  4.04625 5.15234375  C 4.14375 5.05598958333333  4.26020833333333 5.00260416666667  4.395625 4.9921875  C 4.525625 4.98177083333333  4.73145833333333 4.828125  5.013125 4.53125  C 5.29479166666667 4.234375  5.56833333333333 3.91927083333333  5.83375 3.5859375  C 6.20208333333333 3.1328125  6.475625 2.8203125  6.654375 2.6484375  C 6.751875 2.5546875  6.83583333333333 2.4296875  6.90625 2.2734375  C 6.97666666666667 2.1171875  7.0240625 1.99088541666667  7.0484375 1.89453125  C 7.0728125 1.79817708333333  7.109375 1.640625  7.158125 1.421875  C 7.19604166666667 1.21875  7.22989583333333 1.05989583333333  7.2596875 0.9453125  C 7.28947916666667 0.830729166666666  7.34229166666667 0.6953125  7.418125 0.5390625  C 7.49395833333333 0.3828125  7.58604166666667 0.252604166666667  7.694375 0.1484375  C 7.79729166666667 0.0494791666666661  7.91916666666667 0  8.06 0  C 8.30916666666667 0  8.53260416666667 0.0273437500000004  8.7303125 0.08203125  C 8.92802083333333 0.13671875  9.09052083333333 0.204427083333332  9.2178125 0.28515625  C 9.34510416666667 0.365885416666666  9.4534375 0.471354166666666  9.5428125 0.6015625  C 9.6321875 0.731770833333332  9.6971875 0.848958333333332  9.7378125 0.953125  C 9.7784375 1.05729166666667  9.8109375 1.1875  9.8353125 1.34375  C 9.8596875 1.5  9.87322916666667 1.6171875  9.8759375 1.6953125  C 9.87864583333334 1.7734375  9.88 1.875  9.88 2  C 9.88 2.19791666666667  9.85427083333333 2.39583333333333  9.8028125 2.59375  C 9.75135416666667 2.79166666666667  9.69989583333333 2.94791666666667  9.6484375 3.0625  C 9.59697916666667 3.17708333333333  9.5225 3.32291666666667  9.425 3.5  C 9.40875 3.53125  9.38166666666667 3.578125  9.34375 3.640625  C 9.30583333333333 3.703125  9.27604166666667 3.76041666666667  9.254375 3.8125  C 9.23270833333333 3.86458333333333  9.21104166666667 3.92708333333333  9.189375 4  L 11.44 4  C 11.8625 4  12.228125 4.1484375  12.536875 4.4453125  Z " fill-rule="evenodd" />
    </mask>
  </defs>
  <g transform="matrix(1 0 0 1 -201 -105 )">
    <path d="M 1.925625 9.85546875  C 2.02854166666667 9.75911458333333  2.08 9.640625  2.08 9.5  C 2.08 9.36458333333333  2.02854166666667 9.24739583333333  1.925625 9.1484375  C 1.82270833333333 9.04947916666667  1.70083333333333 9  1.56 9  C 1.41375 9  1.29052083333333 9.04947916666667  1.1903125 9.1484375  C 1.09010416666667 9.24739583333333  1.04 9.36458333333333  1.04 9.5  C 1.04 9.640625  1.09010416666667 9.75911458333333  1.1903125 9.85546875  C 1.29052083333333 9.95182291666667  1.41375 10  1.56 10  C 1.70083333333333 10  1.82270833333333 9.95182291666667  1.925625 9.85546875  Z M 3.225625 5.1484375  C 3.32854166666667 5.24739583333333  3.38 5.36458333333333  3.38 5.5  L 3.38 10.5  C 3.38 10.6354166666667  3.32854166666667 10.7526041666667  3.225625 10.8515625  C 3.12270833333333 10.9505208333333  3.00083333333333 11  2.86 11  L 0.52 11  C 0.379166666666667 11  0.257291666666667 10.9505208333333  0.154375 10.8515625  C 0.0514583333333333 10.7526041666667  0 10.6354166666667  0 10.5  L 0 5.5  C 0 5.36458333333333  0.0514583333333333 5.24739583333333  0.154375 5.1484375  C 0.257291666666667 5.04947916666667  0.379166666666667 5  0.52 5  L 2.86 5  C 3.00083333333333 5  3.12270833333333 5.04947916666667  3.225625 5.1484375  Z M 12.536875 4.4453125  C 12.845625 4.7421875  13 5.09375  13 5.5  C 13 5.94791666666667  12.8510416666667 6.3359375  12.553125 6.6640625  C 12.634375 6.89322916666667  12.675 7.09114583333333  12.675 7.2578125  C 12.69125 7.65364583333333  12.5747916666667 8.01041666666667  12.325625 8.328125  C 12.4177083333333 8.61979166666667  12.4177083333333 8.92447916666667  12.325625 9.2421875  C 12.244375 9.5390625  12.098125 9.78385416666667  11.886875 9.9765625  C 11.935625 10.5598958333333  11.8029166666667 11.03125  11.48875 11.390625  C 11.1420833333333 11.7864583333333  10.6085416666667 11.9895833333333  9.888125 12  L 9.595625 12  L 8.978125 12  L 8.84 12  C 8.4825 12  8.0925 11.9596354166667  7.67 11.87890625  C 7.2475 11.7981770833333  6.9184375 11.72265625  6.6828125 11.65234375  C 6.4471875 11.58203125  6.12083333333333 11.4791666666667  5.70375 11.34375  C 5.0375 11.1197916666667  4.60958333333333 11.0052083333333  4.42 11  C 4.27916666666667 10.9947916666667  4.15729166666667 10.9440104166667  4.054375 10.84765625  C 3.95145833333333 10.7513020833333  3.9 10.6354166666667  3.9 10.5  L 3.9 5.4921875  C 3.9 5.36197916666667  3.94875 5.24869791666667  4.04625 5.15234375  C 4.14375 5.05598958333333  4.26020833333333 5.00260416666667  4.395625 4.9921875  C 4.525625 4.98177083333333  4.73145833333333 4.828125  5.013125 4.53125  C 5.29479166666667 4.234375  5.56833333333333 3.91927083333333  5.83375 3.5859375  C 6.20208333333333 3.1328125  6.475625 2.8203125  6.654375 2.6484375  C 6.751875 2.5546875  6.83583333333333 2.4296875  6.90625 2.2734375  C 6.97666666666667 2.1171875  7.0240625 1.99088541666667  7.0484375 1.89453125  C 7.0728125 1.79817708333333  7.109375 1.640625  7.158125 1.421875  C 7.19604166666667 1.21875  7.22989583333333 1.05989583333333  7.2596875 0.9453125  C 7.28947916666667 0.830729166666666  7.34229166666667 0.6953125  7.418125 0.5390625  C 7.49395833333333 0.3828125  7.58604166666667 0.252604166666667  7.694375 0.1484375  C 7.79729166666667 0.0494791666666661  7.91916666666667 0  8.06 0  C 8.30916666666667 0  8.53260416666667 0.0273437500000004  8.7303125 0.08203125  C 8.92802083333333 0.13671875  9.09052083333333 0.204427083333332  9.2178125 0.28515625  C 9.34510416666667 0.365885416666666  9.4534375 0.471354166666666  9.5428125 0.6015625  C 9.6321875 0.731770833333332  9.6971875 0.848958333333332  9.7378125 0.953125  C 9.7784375 1.05729166666667  9.8109375 1.1875  9.8353125 1.34375  C 9.8596875 1.5  9.87322916666667 1.6171875  9.8759375 1.6953125  C 9.87864583333334 1.7734375  9.88 1.875  9.88 2  C 9.88 2.19791666666667  9.85427083333333 2.39583333333333  9.8028125 2.59375  C 9.75135416666667 2.79166666666667  9.69989583333333 2.94791666666667  9.6484375 3.0625  C 9.59697916666667 3.17708333333333  9.5225 3.32291666666667  9.425 3.5  C 9.40875 3.53125  9.38166666666667 3.578125  9.34375 3.640625  C 9.30583333333333 3.703125  9.27604166666667 3.76041666666667  9.254375 3.8125  C 9.23270833333333 3.86458333333333  9.21104166666667 3.92708333333333  9.189375 4  L 11.44 4  C 11.8625 4  12.228125 4.1484375  12.536875 4.4453125  Z " fill-rule="nonzero" fill="#ffffff" stroke="none" transform="matrix(1 0 0 1 201 105 )" />
    <path d="M 1.925625 9.85546875  C 2.02854166666667 9.75911458333333  2.08 9.640625  2.08 9.5  C 2.08 9.36458333333333  2.02854166666667 9.24739583333333  1.925625 9.1484375  C 1.82270833333333 9.04947916666667  1.70083333333333 9  1.56 9  C 1.41375 9  1.29052083333333 9.04947916666667  1.1903125 9.1484375  C 1.09010416666667 9.24739583333333  1.04 9.36458333333333  1.04 9.5  C 1.04 9.640625  1.09010416666667 9.75911458333333  1.1903125 9.85546875  C 1.29052083333333 9.95182291666667  1.41375 10  1.56 10  C 1.70083333333333 10  1.82270833333333 9.95182291666667  1.925625 9.85546875  Z " stroke-width="2" stroke="#909399" fill="none" transform="matrix(1 0 0 1 201 105 )" mask="url(#clip209)" />
    <path d="M 3.225625 5.1484375  C 3.32854166666667 5.24739583333333  3.38 5.36458333333333  3.38 5.5  L 3.38 10.5  C 3.38 10.6354166666667  3.32854166666667 10.7526041666667  3.225625 10.8515625  C 3.12270833333333 10.9505208333333  3.00083333333333 11  2.86 11  L 0.52 11  C 0.379166666666667 11  0.257291666666667 10.9505208333333  0.154375 10.8515625  C 0.0514583333333333 10.7526041666667  0 10.6354166666667  0 10.5  L 0 5.5  C 0 5.36458333333333  0.0514583333333333 5.24739583333333  0.154375 5.1484375  C 0.257291666666667 5.04947916666667  0.379166666666667 5  0.52 5  L 2.86 5  C 3.00083333333333 5  3.12270833333333 5.04947916666667  3.225625 5.1484375  Z " stroke-width="2" stroke="#909399" fill="none" transform="matrix(1 0 0 1 201 105 )" mask="url(#clip209)" />
    <path d="M 12.536875 4.4453125  C 12.845625 4.7421875  13 5.09375  13 5.5  C 13 5.94791666666667  12.8510416666667 6.3359375  12.553125 6.6640625  C 12.634375 6.89322916666667  12.675 7.09114583333333  12.675 7.2578125  C 12.69125 7.65364583333333  12.5747916666667 8.01041666666667  12.325625 8.328125  C 12.4177083333333 8.61979166666667  12.4177083333333 8.92447916666667  12.325625 9.2421875  C 12.244375 9.5390625  12.098125 9.78385416666667  11.886875 9.9765625  C 11.935625 10.5598958333333  11.8029166666667 11.03125  11.48875 11.390625  C 11.1420833333333 11.7864583333333  10.6085416666667 11.9895833333333  9.888125 12  L 9.595625 12  L 8.978125 12  L 8.84 12  C 8.4825 12  8.0925 11.9596354166667  7.67 11.87890625  C 7.2475 11.7981770833333  6.9184375 11.72265625  6.6828125 11.65234375  C 6.4471875 11.58203125  6.12083333333333 11.4791666666667  5.70375 11.34375  C 5.0375 11.1197916666667  4.60958333333333 11.0052083333333  4.42 11  C 4.27916666666667 10.9947916666667  4.15729166666667 10.9440104166667  4.054375 10.84765625  C 3.95145833333333 10.7513020833333  3.9 10.6354166666667  3.9 10.5  L 3.9 5.4921875  C 3.9 5.36197916666667  3.94875 5.24869791666667  4.04625 5.15234375  C 4.14375 5.05598958333333  4.26020833333333 5.00260416666667  4.395625 4.9921875  C 4.525625 4.98177083333333  4.73145833333333 4.828125  5.013125 4.53125  C 5.29479166666667 4.234375  5.56833333333333 3.91927083333333  5.83375 3.5859375  C 6.20208333333333 3.1328125  6.475625 2.8203125  6.654375 2.6484375  C 6.751875 2.5546875  6.83583333333333 2.4296875  6.90625 2.2734375  C 6.97666666666667 2.1171875  7.0240625 1.99088541666667  7.0484375 1.89453125  C 7.0728125 1.79817708333333  7.109375 1.640625  7.158125 1.421875  C 7.19604166666667 1.21875  7.22989583333333 1.05989583333333  7.2596875 0.9453125  C 7.28947916666667 0.830729166666666  7.34229166666667 0.6953125  7.418125 0.5390625  C 7.49395833333333 0.3828125  7.58604166666667 0.252604166666667  7.694375 0.1484375  C 7.79729166666667 0.0494791666666661  7.91916666666667 0  8.06 0  C 8.30916666666667 0  8.53260416666667 0.0273437500000004  8.7303125 0.08203125  C 8.92802083333333 0.13671875  9.09052083333333 0.204427083333332  9.2178125 0.28515625  C 9.34510416666667 0.365885416666666  9.4534375 0.471354166666666  9.5428125 0.6015625  C 9.6321875 0.731770833333332  9.6971875 0.848958333333332  9.7378125 0.953125  C 9.7784375 1.05729166666667  9.8109375 1.1875  9.8353125 1.34375  C 9.8596875 1.5  9.87322916666667 1.6171875  9.8759375 1.6953125  C 9.87864583333334 1.7734375  9.88 1.875  9.88 2  C 9.88 2.19791666666667  9.85427083333333 2.39583333333333  9.8028125 2.59375  C 9.75135416666667 2.79166666666667  9.69989583333333 2.94791666666667  9.6484375 3.0625  C 9.59697916666667 3.17708333333333  9.5225 3.32291666666667  9.425 3.5  C 9.40875 3.53125  9.38166666666667 3.578125  9.34375 3.640625  C 9.30583333333333 3.703125  9.27604166666667 3.76041666666667  9.254375 3.8125  C 9.23270833333333 3.86458333333333  9.21104166666667 3.92708333333333  9.189375 4  L 11.44 4  C 11.8625 4  12.228125 4.1484375  12.536875 4.4453125  Z " stroke-width="2" stroke="#909399" fill="none" transform="matrix(1 0 0 1 201 105 )" mask="url(#clip209)" />
  </g>
</svg>