<?xml version="1.0" encoding="utf-8"?>
<svg version="1.1" xmlns:xlink="http://www.w3.org/1999/xlink" width="12px" height="12px" xmlns="http://www.w3.org/2000/svg">
  <g transform="matrix(1 0 0 1 -352 -410 )">
    <path d="M 11.518125 10.7840625  L 6.879609375 6.145546875  L 11.518125 1.50703125  C 11.752265625 1.272890625  11.752265625 0.886875  11.518125 0.652734375  L 11.4928125 0.627421875  C 11.258671875 0.39328125  10.87265625 0.39328125  10.638515625 0.627421875  L 6 5.272265625  L 1.361484375 0.627421875  C 1.12734375 0.39328125  0.741328125 0.39328125  0.5071875 0.627421875  L 0.481875 0.652734375  C 0.241406249999999 0.886875  0.241406249999999 1.272890625  0.481875 1.50703125  L 5.120390625 6.145546875  L 0.481875 10.7840625  C 0.247734375 11.018203125  0.247734375 11.40421875  0.481875 11.638359375  L 0.5071875 11.663671875  C 0.741328125 11.8978125  1.12734375 11.8978125  1.361484375 11.663671875  L 6 7.02515625  L 10.638515625 11.663671875  C 10.87265625 11.8978125  11.258671875 11.8978125  11.4928125 11.663671875  L 11.518125 11.638359375  C 11.752265625 11.40421875  11.752265625 11.018203125  11.518125 10.7840625  Z " fill-rule="nonzero" fill="#333333" stroke="none" transform="matrix(1 0 0 1 352 410 )" />
  </g>
</svg>