<?xml version="1.0" encoding="utf-8"?>
<svg version="1.1" xmlns:xlink="http://www.w3.org/1999/xlink" width="18px" height="18px" xmlns="http://www.w3.org/2000/svg">
  <g transform="matrix(1 0 0 1 -347 -183 )">
    <path d="M 17.2771875 16.17609375  L 10.3194140625 9.2183203125  L 17.2771875 2.260546875  C 17.6283984375 1.9093359375  17.6283984375 1.3303125  17.2771875 0.9791015625  L 17.23921875 0.9411328125  C 16.8880078125 0.589921875  16.308984375 0.589921875  15.9577734375 0.9411328125  L 9 7.9083984375  L 2.0422265625 0.9411328125  C 1.691015625 0.589921875  1.1119921875 0.589921875  0.76078125 0.9411328125  L 0.7228125 0.9791015625  C 0.362109374999999 1.3303125  0.362109374999999 1.9093359375  0.7228125 2.260546875  L 7.6805859375 9.2183203125  L 0.7228125 16.17609375  C 0.3716015625 16.5273046875  0.3716015625 17.106328125  0.7228125 17.4575390625  L 0.76078125 17.4955078125  C 1.1119921875 17.84671875  1.691015625 17.84671875  2.0422265625 17.4955078125  L 9 10.537734375  L 15.9577734375 17.4955078125  C 16.308984375 17.84671875  16.8880078125 17.84671875  17.23921875 17.4955078125  L 17.2771875 17.4575390625  C 17.6283984375 17.106328125  17.6283984375 16.5273046875  17.2771875 16.17609375  Z " fill-rule="nonzero" fill="#333333" stroke="none" transform="matrix(1 0 0 1 347 183 )" />
  </g>
</svg>