<?xml version="1.0" encoding="utf-8"?>
<svg version="1.1" xmlns:xlink="http://www.w3.org/1999/xlink" width="15px" height="12px" xmlns="http://www.w3.org/2000/svg">
  <g transform="matrix(1 0 0 1 -115 -83 )">
    <path d="M 0 2.57142857142857  L 7.5 0  L 15 2.57142857142857  L 15 3.42857142857143  L 14 3.42857142857143  C 14 3.54464285714286  13.9466145833333 3.64508928571429  13.83984375 3.72991071428571  C 13.7330729166667 3.81473214285714  13.6067708333333 3.85714285714286  13.4609375 4  L 1.5390625 4  C 1.39322916666667 3.85714285714286  1.26692708333333 3.81473214285714  1.16015625 3.72991071428571  C 1.05338541666667 3.64508928571429  1 3.54464285714286  1 3.42857142857143  L 0 3.42857142857143  L 0 2.57142857142857  Z M 2 9.42857142857143  L 2 4.28571428571428  L 4 4.28571428571428  L 4 9.42857142857143  L 5 9.42857142857143  L 5 4.28571428571428  L 7 4.28571428571428  L 7 9.42857142857143  L 8 9.42857142857143  L 8 4.28571428571428  L 10 4.28571428571428  L 10 9.42857142857143  L 11 9.42857142857143  L 11 4.28571428571428  L 13 4.28571428571428  L 13 9.42857142857143  L 13.4609375 9.42857142857143  C 13.6067708333333 9.42857142857143  13.7330729166667 9.47098214285714  13.83984375 9.55580357142857  C 13.9466145833333 9.640625  14 9.74107142857143  14 9.85714285714286  L 14 10.2857142857143  L 1 10.2857142857143  L 1 9.85714285714286  C 1 9.74107142857143  1.05338541666667 9.640625  1.16015625 9.55580357142857  C 1.26692708333333 9.47098214285714  1.39322916666667 9.42857142857143  1.5390625 9.42857142857143  L 2 9.42857142857143  Z M 0.5390625 10.7142857142857  L 14.4609375 10.7142857142857  C 14.6067708333333 10.7142857142857  14.7330729166667 10.7566964285714  14.83984375 10.8415178571429  C 14.9466145833333 10.9263392857143  15 11.0267857142857  15 11.1428571428571  L 15 12  L 0 12  L 0 11.1428571428571  C 0 11.0267857142857  0.0533854166666667 10.9263392857143  0.16015625 10.8415178571429  C 0.266927083333333 10.7566964285714  0.393229166666667 10.7142857142857  0.5390625 10.7142857142857  Z " fill-rule="nonzero" fill="#909399" stroke="none" transform="matrix(1 0 0 1 115 83 )" />
  </g>
</svg>