<?xml version="1.0" encoding="utf-8"?>
<svg version="1.1" xmlns:xlink="http://www.w3.org/1999/xlink" width="8px" height="14px" xmlns="http://www.w3.org/2000/svg">
  <g transform="matrix(1 0 0 1 -14 -57 )">
    <path d="M 7.38304709694603 13.7940481800426  C 7.28371443093044 13.893380830522  7.15358675204197 13.9430471635299  7.0234590731535 13.9430471635299  C 6.89333139426492 13.9430471635299  6.76320371537645 13.893380830522  6.66387104936086 13.7940481800426  L 0.221843292791164 7.35202042347299  C 0.0231779918324264 7.15351410466974  0.0231779918324264 6.8313507102273  0.221843292791164 6.63286028497868  L 6.66387104936086 0.190816619318184  C 6.8625363503196 -0.00784868164060981  7.18436588689633 -0.00784868164060981  7.38303118785518 0.190816619318184  C 7.58169648881403 0.389322938121438  7.58169648881403 0.711486332563936  7.38303118785518 0.909976757812501  L 1.30059145507812 6.99243239968041  L 7.38304709694603 13.0748880415483  C 7.58171239790488 13.2733943603516  7.58171239790488 13.595557754794  7.38304709694603 13.7940481800426  Z " fill-rule="nonzero" fill="#1989fa" stroke="none" transform="matrix(1 0 0 1 14 57 )" />
  </g>
</svg>