<?xml version="1.0" encoding="utf-8"?>
<svg version="1.1" xmlns:xlink="http://www.w3.org/1999/xlink" width="18px" height="15px" xmlns="http://www.w3.org/2000/svg">
  <g transform="matrix(1 0 0 1 -312 -779 )">
    <path d="M 14.8258928571429 8.046875  C 16.0848214285714 6.82291666666667  16.7142857142857 5.6640625  16.7142857142857 4.5703125  C 16.7142857142857 4.04296875  16.6422991071429 3.57747395833333  16.4983258928571 3.173828125  C 16.3543526785714 2.77018229166666  16.1702008928571 2.44954427083333  15.9458705357143 2.2119140625  C 15.7215401785714 1.97428385416667  15.4486607142857 1.78059895833333  15.1272321428571 1.630859375  C 14.8058035714286 1.48111979166666  14.4910714285714 1.38020833333333  14.1830357142857 1.328125  C 13.875 1.27604166666666  13.546875 1.25  13.1986607142857 1.25  C 12.8504464285714 1.25  12.4754464285714 1.3330078125  12.0736607142857 1.4990234375  C 11.671875 1.6650390625  11.3018973214286 1.87337239583333  10.9637276785714 2.1240234375  C 10.6255580357143 2.37467447916666  10.3359375 2.60904947916666  10.0948660714286 2.8271484375  C 9.85379464285714 3.04524739583333  9.65290178571429 3.24544270833333  9.4921875 3.427734375  C 9.37165178571429 3.57096354166667  9.20758928571429 3.642578125  9 3.642578125  C 8.79241071428572 3.642578125  8.62834821428571 3.57096354166667  8.5078125 3.427734375  C 8.34709821428571 3.24544270833333  8.14620535714286 3.04524739583333  7.90513392857143 2.8271484375  C 7.6640625 2.60904947916666  7.37444196428572 2.37467447916666  7.03627232142857 2.1240234375  C 6.69810267857143 1.87337239583333  6.328125 1.6650390625  5.92633928571429 1.4990234375  C 5.52455357142857 1.3330078125  5.14955357142857 1.25  4.80133928571429 1.25  C 4.453125 1.25  4.125 1.27604166666666  3.81696428571429 1.328125  C 3.50892857142857 1.38020833333333  3.19419642857143 1.48111979166666  2.87276785714286 1.630859375  C 2.55133928571429 1.78059895833333  2.27845982142857 1.97428385416667  2.05412946428571 2.2119140625  C 1.82979910714286 2.44954427083333  1.64564732142857 2.77018229166666  1.50167410714286 3.173828125  C 1.35770089285714 3.57747395833333  1.28571428571429 4.04296875  1.28571428571429 4.5703125  C 1.28571428571429 5.6640625  1.91183035714286 6.81966145833333  3.1640625 8.037109375  L 9 13.505859375  L 14.8258928571429 8.046875  Z M 16.7243303571429 1.2109375  C 17.5747767857143 2.01822916666667  18 3.13802083333333  18 4.5703125  C 18 6.00911458333333  17.2332589285714 7.47395833333333  15.6997767857143 8.96484375  L 9.44196428571428 14.82421875  C 9.32142857142857 14.94140625  9.17410714285714 15  9 15  C 8.82589285714286 15  8.67857142857143 14.94140625  8.55803571428571 14.82421875  L 2.29017857142857 8.9453125  C 2.22321428571429 8.89322916666667  2.13113839285714 8.80859375  2.01395089285714 8.69140625  C 1.89676339285714 8.57421875  1.7109375 8.36100260416667  1.45647321428571 8.0517578125  C 1.20200892857143 7.74251302083333  0.974330357142857 7.42513020833333  0.7734375 7.099609375  C 0.572544642857143 6.77408854166667  0.393415178571429 6.38020833333333  0.236049107142857 5.91796875  C 0.0786830357142857 5.45572916666667  0 5.00651041666667  0 4.5703125  C 0 3.13802083333333  0.425223214285714 2.01822916666667  1.27566964285714 1.2109375  C 2.12611607142857 0.403645833333333  3.30133928571429 0  4.80133928571429 0  C 5.21651785714286 0  5.64006696428571 0.0699869791666657  6.07198660714286 0.209960937500001  C 6.50390625 0.349934895833332  6.90569196428571 0.538736979166666  7.27734375 0.7763671875  C 7.64899553571429 1.01399739583333  7.96875 1.23697916666667  8.23660714285714 1.4453125  C 8.50446428571429 1.65364583333333  8.75892857142857 1.875  9 2.109375  C 9.24107142857143 1.875  9.49553571428572 1.65364583333333  9.76339285714286 1.4453125  C 10.03125 1.23697916666667  10.3510044642857 1.01399739583333  10.72265625 0.7763671875  C 11.0943080357143 0.538736979166666  11.49609375 0.349934895833332  11.9280133928571 0.209960937500001  C 12.3599330357143 0.0699869791666657  12.7834821428571 0  13.1986607142857 0  C 14.6986607142857 0  15.8738839285714 0.403645833333333  16.7243303571429 1.2109375  Z " fill-rule="nonzero" fill="#000000" stroke="none" transform="matrix(1 0 0 1 312 779 )" />
  </g>
</svg>