<?xml version="1.0" encoding="utf-8"?>
<svg version="1.1" xmlns:xlink="http://www.w3.org/1999/xlink" width="13px" height="12px" xmlns="http://www.w3.org/2000/svg">
  <g transform="matrix(1 0 0 1 -126 -782 )">
    <path d="M 12.8006106321839 5.16701649175411  C 12.9649784482758 5.01229385307348  13.0242816091954 4.78110944527735  12.9533045977011 4.57016491754125  C 12.8823275862069 4.35922038980508  12.6927442528736 4.2053973013493  12.4653376436782 4.17391304347826  L 8.71522988505748 3.64902548725636  L 7.03793103448276 0.375562218890536  C 6.93613505747127 0.17676161919043  6.72600574712643 0.0508245877061437  6.49579741379312 0.0508245877061437  C 6.26558908045975 0.0508245877061437  6.05545977011496 0.17676161919043  5.95366379310348 0.375562218890536  L 4.27636494252875 3.64902548725636  L 0.525790229885085 4.17391304347826  C 0.297916666666642 4.20584707646179  0.108800287356331 4.35922038980508  0.0378232758620622 4.57016491754125  C -0.0331537356322068 4.78110944527735  0.0261494252873623 5.01229385307348  0.190984195402327 5.16701649175411  L 2.90492097701152 7.71499250374815  L 2.26426005747127 11.3127436281859  C 2.2255028735632 11.5313343328336  2.31842672413795 11.7521739130435  2.50474137931036 11.8826086956522  C 2.69105603448277 12.0130434782609  2.9376077586207 12.0301349325338  3.14166666666664 11.9266866566717  L 6.49626436781609 10.2278860569715  L 9.85039511494251 11.9266866566717  C 9.93864942528734 11.9712143928036  10.035308908046 11.9937031484258  10.1315014367816 11.9937031484258  C 10.2566451149425 11.9937031484258  10.3817887931035 11.956371814093  10.4868534482759 11.8826086956522  C 10.6731681034483 11.7521739130435  10.766091954023 11.5313343328336  10.727334770115 11.3127436281859  L 10.0866738505747 7.71499250374815  L 12.8006106321839 5.16701649175411  Z " fill-rule="nonzero" fill="#ffd21e" stroke="none" transform="matrix(1 0 0 1 126 782 )" />
  </g>
</svg>