<?xml version="1.0" encoding="utf-8"?>
<svg version="1.1" xmlns:xlink="http://www.w3.org/1999/xlink" width="13px" height="13px" xmlns="http://www.w3.org/2000/svg">
  <g transform="matrix(1 0 0 1 -139 -782 )">
    <path d="M 2.19510909090909 11.4839784090909  C 2.13753977272732 11.8280795454546  2.28633068181819 12.1729636363637  2.57821022727269 12.3741829545454  C 2.73883409090907 12.4843431818182  2.92723068181816 12.5403170454545  3.11583409090902 12.5403170454545  C 3.27133181818182 12.5403170454545  3.42663750000006 12.5026761363637  3.56733295454542 12.4272022727272  L 6.49964545454542 10.8480272727274  L 9.4325340909091 12.4272022727272  C 9.57364318181818 12.5026761363637  9.72914090909091 12.5403170454545  9.88403295454543 12.5403170454545  C 10.0724443181818 12.5403170454545  10.2608556818182 12.4843431818182  10.4220556818182 12.3741829545454  C 10.7133295454546 12.1729636363637  10.8623272727273 11.8280795454546  10.8039897727273 11.4839784090909  L 10.2324625 8.07020795454554  L 12.6980897727273 5.608140909091  C 12.9422681818181 5.36532159090905  13.0258375 5.00901818181816  12.9146727272727 4.68542159090914  C 12.8031238636364 4.362415909091  12.5161784090909 4.12651022727273  12.1707181818181 4.07487954545458  L 8.80720454545455 3.57449772727268  L 7.34491136363636 0.5393227272727  C 7.19158522727266 0.22045340909087  6.86206477272722 0.0164715909090821  6.49964545454542 0.0164715909090821  C 6.13840795454545 0.0164715909090821  5.80869545454545 0.22045340909087  5.65477840909087 0.5393227272727  L 4.19285454545452 3.57449772727268  L 0.829163636363641 4.07487954545458  C 0.483496590909098 4.12651022727273  0.196551136363624 4.362415909091  0.0851943181818011 4.68542159090914  C -0.0259556818181939 5.00901818181816  0.058204545454591 5.36532159090905  0.302176136363651 5.608140909091  L 2.76681363636361 8.07020795454554  L 2.19510909090909 11.4839784090909  Z M 3.26679659090906 7.41849431818181  L 0.822855681818169 4.97945795454547  L 4.17571818181815 4.48143977272729  L 4.76557840909091 4.39354204545458  L 5.02452954545457 3.85670113636369  L 6.49985227272725 0.797682954545479  L 7.97496818181822 3.85670113636369  L 8.23412613636371 4.39354204545458  L 8.82398636363635 4.48143977272729  L 12.1768488636363 4.97945795454547  L 9.7317113636364 7.41847954545467  L 9.32099999999998 7.82820113636363  L 9.41659431818182 8.39992045454541  L 9.98791477272728 11.8073681818183  L 7.03314772727277 10.2181625  L 6.4992465909091 9.93083295454551  L 5.96537499999996 10.2181625  L 3.01060795454544 11.8079738636364  L 3.58192840909091 8.39993522727281  L 3.67752272727268 7.8282159090909  L 3.26679659090906 7.41849431818181  Z " fill-rule="nonzero" fill="#c9c9c9" stroke="none" transform="matrix(1 0 0 1 139 782 )" />
  </g>
</svg>