<?xml version="1.0" encoding="utf-8"?>
<svg version="1.1" xmlns:xlink="http://www.w3.org/1999/xlink" width="14px" height="14px" xmlns="http://www.w3.org/2000/svg">
  <g transform="matrix(1 0 0 1 0 -1 )">
    <path d="M 7.875 13.125  C 7.875 13.60625  7.48124999999993 14  7 14  C 3.14125000000001 14  0 10.85875  0 7  C 0 3.14125000000001  3.14125000000001 0  7 0  C 10.85875 0  14 3.14125000000001  14 7  C 14 7.48125000000005  13.60625 7.875  13.125 7.875  C 12.64375 7.875  12.25 7.48125000000005  12.25 7  C 12.25 4.10374999999999  9.89625000000001 1.75  7 1.75  C 4.10374999999999 1.75  1.75 4.10374999999999  1.75 7  C 1.75 9.89625000000001  4.10374999999999 12.25  7 12.25  C 7.48124999999993 12.25  7.875 12.64375  7.875 13.125  Z " fill-rule="nonzero" fill="#cccccc" stroke="none" transform="matrix(1 0 0 1 0 1 )" />
  </g>
</svg>