<?xml version="1.0" encoding="utf-8"?>
<svg version="1.1" xmlns:xlink="http://www.w3.org/1999/xlink" width="16px" height="16px" xmlns="http://www.w3.org/2000/svg">
  <g transform="matrix(1 0 0 1 -266 -779 )">
    <path d="M 2.70167272727273 14.1341272727273  C 2.63081818181824 14.5576363636364  2.81394545454547 14.9821090909092  3.17318181818177 15.2297636363636  C 3.3708727272727 15.3653454545455  3.60274545454543 15.4342363636363  3.83487272727264 15.4342363636363  C 4.02625454545455 15.4342363636363  4.21740000000007 15.3879090909092  4.39056363636359 15.2950181818181  L 7.99956363636359 13.3514181818183  L 11.6092727272727 15.2950181818181  C 11.7829454545454 15.3879090909092  11.9743272727273 15.4342363636363  12.1649636363636 15.4342363636363  C 12.3968545454545 15.4342363636363  12.6287454545454 15.3653454545455  12.8271454545455 15.2297636363636  C 13.1856363636364 14.9821090909092  13.3690181818182 14.5576363636364  13.2972181818182 14.1341272727273  L 12.5938 9.93256363636374  L 15.6284181818182 6.90232727272739  C 15.9289454545454 6.60347272727267  16.0318 6.16494545454543  15.8949818181818 5.76667272727279  C 15.7576909090909 5.36912727272738  15.4045272727273 5.07878181818182  14.9793454545454 5.0152363636364  L 10.8396363636364 4.39938181818176  L 9.0398909090909 0.663781818181784  C 8.85118181818173 0.271327272727225  8.44561818181811 0.0202727272727164  7.99956363636359 0.0202727272727164  C 7.55496363636363 0.0202727272727164  7.14916363636363 0.271327272727225  6.95972727272723 0.663781818181784  L 5.16043636363634 4.39938181818176  L 1.0205090909091 5.0152363636364  C 0.595072727272736 5.07878181818182  0.241909090909076 5.36912727272738  0.104854545454524 5.76667272727279  C -0.0319454545454695 6.16494545454543  0.0716363636364197 6.60347272727267  0.371909090909109 6.90232727272739  L 3.40530909090906 9.93256363636374  L 2.70167272727273 14.1341272727273  Z M 4.02067272727269 9.13045454545454  L 1.01274545454544 6.12856363636365  L 5.13934545454542 5.5156181818182  L 5.86532727272728 5.40743636363641  L 6.1840363636364 4.74670909090916  L 7.99981818181815 0.981763636363667  L 9.8153454545455 4.74670909090916  L 10.1343090909092 5.40743636363641  L 10.8602909090909 5.5156181818182  L 14.9868909090909 6.12856363636365  L 11.977490909091 9.13043636363651  L 11.472 9.63470909090908  L 11.5896545454546 10.3383636363636  L 12.2928181818182 14.5321454545456  L 8.65618181818187 12.5762  L 7.99907272727273 12.2225636363637  L 7.34199999999995 12.5762  L 3.70536363636362 14.532890909091  L 4.40852727272727 10.3383818181819  L 4.52618181818176 9.63472727272726  L 4.02067272727269 9.13045454545454  Z " fill-rule="nonzero" fill="#333333" stroke="none" transform="matrix(1 0 0 1 266 779 )" />
  </g>
</svg>