<?xml version="1.0" encoding="utf-8"?>
<svg version="1.1" xmlns:xlink="http://www.w3.org/1999/xlink" width="24px" height="24px" xmlns="http://www.w3.org/2000/svg">
  <g>
    <path d="M 4.0525090909091 21.2011909090909  C 3.94622727272736 21.8364545454547  4.22091818181821 22.4731636363638  4.75977272727266 22.8446454545453  C 5.05630909090905 23.0480181818182  5.40411818181815 23.1513545454545  5.75230909090897 23.1513545454545  C 6.03938181818182 23.1513545454545  6.32610000000011 23.0818636363638  6.58584545454539 22.9425272727271  L 11.9993454545454 20.0271272727275  L 17.4139090909091 22.9425272727271  C 17.6744181818182 23.0818636363638  17.9614909090909 23.1513545454545  18.2474454545454 23.1513545454545  C 18.5952818181818 23.1513545454545  18.9431181818181 23.0480181818182  19.2407181818182 22.8446454545453  C 19.7784545454546 22.4731636363638  20.0535272727273 21.8364545454547  19.9458272727273 21.2011909090909  L 18.8906999999999 14.8988454545456  L 23.4426272727272 10.3534909090911  C 23.8934181818181 9.90520909090901  24.0477 9.24741818181815  23.8424727272727 8.65000909090918  C 23.6365363636364 8.05369090909107  23.1067909090909 7.61817272727274  22.4690181818181 7.52285454545461  L 16.2594545454546 6.59907272727264  L 13.5598363636364 0.995672727272677  C 13.2767727272726 0.406990909090837  12.6684272727272 0.0304090909090746  11.9993454545454 0.0304090909090746  C 11.3324454545455 0.0304090909090746  10.7237454545455 0.406990909090837  10.4395909090908 0.995672727272677  L 7.7406545454545 6.59907272727264  L 1.53076363636364 7.52285454545461  C 0.892609090909104 7.61817272727274  0.362863636363613 8.05369090909107  0.157281818181787 8.65000909090918  C -0.0479181818182042 9.24741818181815  0.10745454545463 9.90520909090901  0.557863636363663 10.3534909090911  L 5.10796363636359 14.8988454545456  L 4.0525090909091 21.2011909090909  Z M 6.03100909090904 13.6956818181818  L 1.51911818181816 9.19284545454548  L 7.70901818181812 8.2734272727273  L 8.79799090909091 8.11115454545461  L 9.2760545454546 7.12006363636374  L 11.9997272727272 1.4726454545455  L 14.7230181818182 7.12006363636374  L 15.2014636363638 8.11115454545461  L 16.2904363636363 8.2734272727273  L 22.4803363636363 9.19284545454548  L 17.9662363636364 13.6956545454548  L 17.208 14.4520636363636  L 17.3844818181818 15.5075454545454  L 18.4392272727273 21.7982181818184  L 12.9842727272728 18.8643  L 11.9986090909091 18.3338454545456  L 11.0129999999999 18.8643  L 5.55804545454544 21.7993363636365  L 6.6127909090909 15.5075727272729  L 6.78927272727265 14.4520909090909  L 6.03100909090904 13.6956818181818  Z " fill-rule="nonzero" fill="#c9c9c9" stroke="none" />
  </g>
</svg>