<?xml version="1.0" encoding="utf-8"?>
<svg version="1.1" xmlns:xlink="http://www.w3.org/1999/xlink" width="24px" height="23px" xmlns="http://www.w3.org/2000/svg">
  <g>
    <path d="M 23.6318965517241 9.90344827586205  C 23.9353448275862 9.60689655172416  24.0448275862069 9.16379310344826  23.9137931034483 8.75948275862072  C 23.7827586206896 8.35517241379307  23.4327586206897 8.06034482758616  23.0129310344828 8  L 16.0896551724138 6.99396551724135  L 12.9931034482759 0.719827586206861  C 12.8051724137931 0.338793103448324  12.4172413793103 0.097413793103442  11.9922413793104 0.097413793103442  C 11.5672413793103 0.097413793103442  11.1793103448276 0.338793103448324  10.9913793103449 0.719827586206861  L 7.89482758620693 6.99396551724135  L 0.970689655172464 8  C 0.549999999999955 8.06120689655177  0.200862068965534 8.35517241379307  0.069827586206884 8.75948275862072  C -0.0612068965517665 9.16379310344826  0.0482758620689765 9.60689655172416  0.352586206896603 9.90344827586205  L 5.36293103448281 14.7870689655173  L 4.18017241379312 21.6827586206897  C 4.10862068965514 22.101724137931  4.28017241379314 22.525  4.62413793103451 22.775  C 4.96810344827588 23.025  5.42327586206898 23.0577586206897  5.79999999999995 22.8594827586207  L 11.9931034482759 19.6034482758621  L 18.1853448275862 22.8594827586207  C 18.3482758620689 22.9448275862069  18.5267241379311 22.9879310344828  18.7043103448276 22.9879310344828  C 18.9353448275862 22.9879310344828  19.1663793103448 22.9163793103448  19.3603448275862 22.775  C 19.7043103448276 22.525  19.8758620689655 22.101724137931  19.8043103448276 21.6827586206897  L 18.6215517241379 14.7870689655173  L 23.6318965517241 9.90344827586205  Z " fill-rule="nonzero" fill="#ffd21e" stroke="none" />
  </g>
</svg>