<?xml version="1.0" encoding="utf-8"?>
<svg version="1.1" xmlns:xlink="http://www.w3.org/1999/xlink" width="14px" height="14px" xmlns="http://www.w3.org/2000/svg">
  <g transform="matrix(1 0 0 1 -279 -92 )">
    <path d="M 8.50390625 8.14405684754522  C 8.74088541666667 7.85163652024117  8.89887152777778 7.70542635658915  8.97786458333333 7.70542635658915  C 9.05685763888889 7.70542635658915  9.35308159722222 7.8380706287683  9.86653645833333 8.10335917312662  C 10.3799913194444 8.36864771748493  10.6519097222222 8.52842377260982  10.6822916666667 8.58268733850129  C 10.6944444444444 8.61283376399655  10.7005208333333 8.65805340223945  10.7005208333333 8.71834625322997  C 10.7005208333333 8.91731266149871  10.6488715277778 9.1464254952627  10.5455729166667 9.40568475452196  C 10.4483506944444 9.64082687338501  10.2326388888889 9.83828596037898  9.8984375 9.99806201550387  C 9.56423611111111 10.1578380706288  9.25434027777778 10.2377260981912  8.96875 10.2377260981912  C 8.62239583333333 10.2377260981912  8.04513888888889 10.0508182601206  7.23697916666667 9.67700258397933  C 6.64149305555556 9.40568475452196  6.125 9.04995693367786  5.6875 8.60981912144703  C 5.25 8.16968130921619  4.80034722222222 7.61197243755383  4.33854166666667 6.93669250645995  C 3.90104166666667 6.29155900086133  3.68532986111111 5.70671834625323  3.69140625 5.18217054263566  L 3.69140625 5.10981912144703  C 3.70963541666667 4.56115417743325  3.93446180555556 4.0848406546081  4.36588541666667 3.68087855297158  C 4.51171875 3.54823428079242  4.66970486111111 3.48191214470284  4.83984375 3.48191214470284  C 4.87630208333333 3.48191214470284  4.93098958333333 3.48643410852713  5.00390625 3.49547803617571  C 5.07682291666667 3.50452196382429  5.13454861111111 3.50904392764858  5.17708333333333 3.50904392764858  C 5.29253472222222 3.50904392764858  5.373046875 3.5286391042205  5.41861979166667 3.56782945736434  C 5.46419270833333 3.60701981050818  5.51128472222222 3.68992248062016  5.55989583333333 3.81653746770026  C 5.60850694444444 3.93712316968131  5.70876736111111 4.20241171403962  5.86067708333333 4.61240310077519  C 6.01258680555556 5.02239448751077  6.08854166666667 5.24849267872524  6.08854166666667 5.2906976744186  C 6.08854166666667 5.41731266149871  5.98372395833333 5.59065460809647  5.77408854166667 5.81072351421189  C 5.564453125 6.0307924203273  5.45963541666667 6.17097329888028  5.45963541666667 6.2312661498708  C 5.45963541666667 6.27347114556417  5.47482638888889 6.31869078380706  5.50520833333333 6.36692506459948  C 5.71180555555556 6.80706287683032  6.02170138888889 7.22006890611542  6.43489583333333 7.60594315245478  C 6.77517361111111 7.92549526270457  7.23394097222222 8.22997416020672  7.81119791666667 8.51937984496124  C 7.88411458333333 8.56158484065461  7.95095486111111 8.58268733850129  8.01171875 8.58268733850129  C 8.10286458333333 8.58268733850129  8.26692708333333 8.43647717484927  8.50390625 8.14405684754522  Z M 3.98307291666667 11.5581395348837  C 4.94314236111111 12.1851851851852  5.99131944444444 12.4987080103359  7.12760416666667 12.4987080103359  C 7.89930555555556 12.4987080103359  8.63910590277778 12.3479758828596  9.34700520833333 12.046511627907  C 10.0549045138889 11.7450473729543  10.6640625 11.3410852713178  11.1744791666667 10.8346253229974  C 11.6848958333333 10.328165374677  12.0920138888889 9.72372954349698  12.3958333333333 9.02131782945736  C 12.6996527777778 8.31890611541774  12.8515625 7.5848406546081  12.8515625 6.81912144702842  C 12.8515625 6.05340223944875  12.6996527777778 5.3193367786391  12.3958333333333 4.61692506459948  C 12.0920138888889 3.91451335055986  11.6848958333333 3.31007751937984  11.1744791666667 2.80361757105943  C 10.6640625 2.29715762273902  10.0549045138889 1.8931955211025  9.34700520833333 1.59173126614987  C 8.63910590277778 1.29026701119724  7.89930555555556 1.13953488372093  7.12760416666667 1.13953488372093  C 6.35590277777778 1.13953488372093  5.61610243055556 1.29026701119724  4.908203125 1.59173126614987  C 4.20030381944444 1.8931955211025  3.59114583333333 2.29715762273902  3.08072916666667 2.80361757105943  C 2.5703125 3.31007751937984  2.16319444444444 3.91451335055986  1.859375 4.61692506459948  C 1.55555555555556 5.3193367786391  1.40364583333333 6.05340223944875  1.40364583333333 6.81912144702842  C 1.40364583333333 8.04306632213609  1.76822916666667 9.15245478036176  2.49739583333333 10.1472868217054  L 1.77734375 12.2545219638243  L 3.98307291666667 11.5581395348837  Z M 4.46158854166667 0.542635658914728  C 5.30924479166667 0.180878552971576  6.19791666666667 0  7.12760416666667 0  C 8.05729166666667 0  8.94596354166667 0.180878552971576  9.79361979166667 0.542635658914728  C 10.6412760416667 0.904392764857881  11.3719618055556 1.38975021533161  11.9856770833333 1.99870801033592  C 12.5993923611111 2.60766580534022  13.0885416666667 3.33268733850129  13.453125 4.17377260981912  C 13.8177083333333 5.01485788113695  14 5.89664082687338  14 6.81912144702842  C 14 7.74160206718346  13.8177083333333 8.6233850129199  13.453125 9.46447028423773  C 13.0885416666667 10.3055555555556  12.5993923611111 11.0305770887166  11.9856770833333 11.6395348837209  C 11.3719618055556 12.2484926787252  10.6412760416667 12.733850129199  9.79361979166667 13.0956072351421  C 8.94596354166667 13.4573643410853  8.05729166666667 13.6382428940568  7.12760416666667 13.6382428940568  C 5.94270833333333 13.6382428940568  4.83376736111111 13.3548664944014  3.80078125 12.7881136950904  L 0 14  L 1.23958333333333 10.3372093023256  C 0.583333333333333 9.26399655469423  0.255208333333333 8.09130060292851  0.255208333333333 6.81912144702842  C 0.255208333333333 5.89664082687338  0.4375 5.01485788113695  0.802083333333333 4.17377260981912  C 1.16666666666667 3.33268733850129  1.65581597222222 2.60766580534022  2.26953125 1.99870801033592  C 2.88324652777778 1.38975021533161  3.61393229166667 0.904392764857881  4.46158854166667 0.542635658914728  Z " fill-rule="nonzero" fill="#1989fa" stroke="none" transform="matrix(1 0 0 1 279 92 )" />
  </g>
</svg>