<?xml version="1.0" encoding="utf-8"?>
<svg version="1.1" xmlns:xlink="http://www.w3.org/1999/xlink" width="14px" height="14px" xmlns="http://www.w3.org/2000/svg">
  <g transform="matrix(1 0 0 1 -105 -73 )">
    <path d="M 9.474609375 6.31640625  C 10.158203125 5.86067708333333  10.5 5.31076388888889  10.5 4.66666666666667  C 10.5 4.02256944444444  10.158203125 3.47265625  9.474609375 3.01692708333333  C 8.791015625 2.56119791666667  7.96614583333333 2.33333333333333  7 2.33333333333333  C 6.03385416666667 2.33333333333333  5.208984375 2.56119791666667  4.525390625 3.01692708333333  C 3.841796875 3.47265625  3.5 4.02256944444444  3.5 4.66666666666667  C 3.5 5.31076388888889  3.841796875 5.86067708333333  4.525390625 6.31640625  C 5.208984375 6.77213541666667  6.03385416666667 7  7 7  C 7.96614583333333 7  8.791015625 6.77213541666667  9.474609375 6.31640625  Z M 11.94921875 1.3671875  C 13.31640625 2.27864583333333  14 3.37847222222222  14 4.66666666666667  C 14 5.32899305555555  13.849609375 5.87282986111111  13.548828125 6.29817708333333  L 8.572265625 13.3528645833333  C 8.42643229166667 13.5533854166667  8.2099609375 13.7113715277778  7.9228515625 13.8268229166667  C 7.6357421875 13.9422743055556  7.328125 14  7 14  C 6.671875 14  6.3642578125 13.9422743055556  6.0771484375 13.8268229166667  C 5.7900390625 13.7113715277778  5.578125 13.5533854166667  5.44140625 13.3528645833333  L 0.451171875 6.29817708333333  C 0.150390625 5.87282986111111  0 5.32899305555555  0 4.66666666666667  C 0 3.37847222222222  0.68359375 2.27864583333333  2.05078125 1.3671875  C 3.41796875 0.455729166666667  5.06770833333333 0  7 0  C 8.93229166666667 0  10.58203125 0.455729166666667  11.94921875 1.3671875  Z " fill-rule="nonzero" fill="#d7d7d7" stroke="none" transform="matrix(1 0 0 1 105 73 )" />
  </g>
</svg>