<?xml version="1.0" encoding="utf-8"?>
<svg version="1.1" xmlns:xlink="http://www.w3.org/1999/xlink" width="14px" height="14px" xmlns="http://www.w3.org/2000/svg">
  <g transform="matrix(1 0 0 1 -307 -92 )">
    <path d="M 3.7939453125 3.89868105515588  C 3.90787760416667 3.76159072741806  3.96484375 3.57833733013589  3.96484375 3.34892086330935  C 3.96484375 3.11950439648281  3.90787760416667 2.93485211830536  3.7939453125 2.79496402877698  C 3.68001302083333 2.6550759392486  3.52962239583333 2.58513189448441  3.3427734375 2.58513189448441  C 3.14680989583333 2.58513189448441  2.9736328125 2.65647482014389  2.8232421875 2.79916067146283  C 2.6728515625 2.94184652278178  2.59765625 3.12509992006395  2.59765625 3.34892086330935  C 2.59765625 3.56714628297362  2.6728515625 3.74760191846523  2.8232421875 3.89028776978417  C 2.9736328125 4.03297362110312  3.14680989583333 4.10431654676259  3.3427734375 4.10431654676259  C 3.52962239583333 4.10431654676259  3.68001302083333 4.03577138289368  3.7939453125 3.89868105515588  Z M 8.86962890625 8.03237410071942  C 8.98583984375 7.90927258193445  9.0439453125 7.76658673061551  9.0439453125 7.60431654676259  C 9.0439453125 7.44764188649081  8.98583984375 7.30775379696243  8.86962890625 7.18465227817746  C 8.75341796875 7.06155075939249  8.60416666666667 7  8.421875 7  C 8.298828125 7  8.18603515625 7.06294964028777  8.08349609375 7.18884892086331  C 7.98095703125 7.31474820143885  7.9296875 7.45323741007194  7.9296875 7.60431654676259  C 7.9296875 7.76099120703437  7.98095703125 7.90227817745803  8.08349609375 8.02817745803357  C 8.18603515625 8.15407673860911  8.298828125 8.21702637889688  8.421875 8.21702637889688  C 8.60416666666667 8.21702637889688  8.75341796875 8.1554756195044  8.86962890625 8.03237410071942  Z M 7.26318359375 3.89868105515588  C 7.37483723958333 3.76159072741806  7.4306640625 3.57833733013589  7.4306640625 3.34892086330935  C 7.4306640625 3.11950439648281  7.37483723958333 2.93485211830536  7.26318359375 2.79496402877698  C 7.15152994791667 2.6550759392486  7.00227864583333 2.58513189448441  6.8154296875 2.58513189448441  C 6.61946614583333 2.58513189448441  6.4462890625 2.65647482014389  6.2958984375 2.79916067146283  C 6.1455078125 2.94184652278178  6.0703125 3.12509992006395  6.0703125 3.34892086330935  C 6.0703125 3.56714628297362  6.1455078125 3.74760191846523  6.2958984375 3.89028776978417  C 6.4462890625 4.03297362110312  6.61946614583333 4.10431654676259  6.8154296875 4.10431654676259  C 7.00227864583333 4.10431654676259  7.15152994791667 4.03577138289368  7.26318359375 3.89868105515588  Z M 11.59375 8.03237410071942  C 11.7122395833333 7.90927258193445  11.771484375 7.76658673061551  11.771484375 7.60431654676259  C 11.771484375 7.44764188649081  11.7122395833333 7.30775379696243  11.59375 7.18465227817746  C 11.4752604166667 7.06155075939249  11.3271484375 7  11.1494140625 7  C 11.0263671875 7  10.91357421875 7.06294964028777  10.81103515625 7.18884892086331  C 10.70849609375 7.31474820143885  10.6572265625 7.45323741007194  10.6572265625 7.60431654676259  C 10.6572265625 7.76099120703437  10.70849609375 7.90227817745803  10.81103515625 8.02817745803357  C 10.91357421875 8.15407673860911  11.0263671875 8.21702637889688  11.1494140625 8.21702637889688  C 11.3271484375 8.21702637889688  11.4752604166667 8.1554756195044  11.59375 8.03237410071942  Z M 9.02001953125 2.08573141486811  C 9.50081380208333 2.73760991207034  9.81184895833333 3.46642685851319  9.953125 4.27218225419664  C 9.81184895833333 4.2498001598721  9.65234375 4.23860911270983  9.474609375 4.23860911270983  C 8.70442708333333 4.23860911270983  7.99576822916667 4.45403677058353  7.3486328125 4.88489208633094  C 6.70149739583333 5.31574740207834  6.19222005208333 5.89908073541167  5.82080078125 6.63489208633094  C 5.44938151041667 7.3707034372502  5.263671875 8.17505995203837  5.263671875 9.04796163069544  C 5.263671875 9.48441247002398  5.31608072916667 9.90967226219025  5.4208984375 10.3237410071942  C 5.26139322916667 10.3405275779377  5.1064453125 10.3489208633094  4.9560546875 10.3489208633094  C 4.83756510416667 10.3489208633094  4.7236328125 10.3447242206235  4.6142578125 10.3363309352518  C 4.5048828125 10.3279376498801  4.37955729166667 10.3097521982414  4.23828125 10.2817745803357  C 4.09700520833333 10.2537969624301  3.99560546875 10.2342126298961  3.93408203125 10.2230215827338  C 3.87255859375 10.2118305355715  3.74837239583333 10.1824540367706  3.5615234375 10.1348920863309  C 3.37467447916667 10.0873301358913  3.2607421875 10.0579536370903  3.2197265625 10.0467625899281  L 1.490234375 11.1127098321343  L 1.982421875 9.28297362110312  C 0.660807291666667 8.14708233413269  0 6.7761790567546  0 5.17026378896883  C 0 4.22462030375699  0.22216796875 3.35451638689049  0.66650390625 2.5599520383693  C 1.11083984375 1.76538768984812  1.71240234375 1.14008792965627  2.47119140625 0.684052757793765  C 3.22998046875 0.228017585931254  4.05826822916667 0  4.9560546875 0  C 5.75813802083333 0  6.51578776041667 0.184652278177458  7.22900390625 0.553956834532374  C 7.94222005208333 0.923261390887291  8.53922526041667 1.43385291766587  9.02001953125 2.08573141486811  Z M 13.41552734375 6.76918465227818  C 13.80517578125 7.44904076738609  14 8.18625099920064  14 8.98081534772182  C 14 9.63549160671463  13.8439127604167 10.2607913669065  13.53173828125 10.8567146282974  C 13.2195638020833 11.4526378896882  12.796875 11.9940047961631  12.263671875 12.4808153477218  L 12.6396484375 14  L 11.279296875 13.0851318944844  C 10.595703125 13.2921662669864  10.0989583333333 13.3956834532374  9.7890625 13.3956834532374  C 9.01888020833333 13.3956834532374  8.31022135416667 13.1984412470024  7.6630859375 12.8039568345324  C 7.01595052083333 12.4094724220624  6.50667317708333 11.8737010391687  6.13525390625 11.1966426858513  C 5.76383463541667 10.519584332534  5.578125 9.78097521982414  5.578125 8.98081534772182  C 5.578125 8.1806554756195  5.76383463541667 7.44204636290967  6.13525390625 6.76498800959233  C 6.50667317708333 6.08792965627498  7.01595052083333 5.55215827338129  7.6630859375 5.15767386091127  C 8.31022135416667 4.76318944844125  9.01888020833333 4.56594724220624  9.7890625 4.56594724220624  C 10.5227864583333 4.56594724220624  11.2132161458333 4.76318944844125  11.8603515625 5.15767386091127  C 12.5074869791667 5.55215827338129  13.02587890625 6.08932853717026  13.41552734375 6.76918465227818  Z " fill-rule="nonzero" fill="#1989fa" stroke="none" transform="matrix(1 0 0 1 307 92 )" />
  </g>
</svg>