<?xml version="1.0" encoding="utf-8"?>
<svg version="1.1" xmlns:xlink="http://www.w3.org/1999/xlink" width="14px" height="14px" xmlns="http://www.w3.org/2000/svg">
  <g transform="matrix(1 0 0 1 -334 -92 )">
    <path d="M 13.2504182933631 0.0858416945373461  C 13.432608291504 -0.0234113712374597  13.6095928611266 -0.0182088442958031  13.7813720022309 0.101449275362319  C 13.9531511433352 0.226309921962095  14.0234244283324 0.392790784095131  13.9921918572225 0.600891861761428  L 11.9933073061907 12.58751393534  C 11.9672801635992 12.7383872166481  11.8839933073062 12.8554440728354  11.7434467373118 12.9386845039019  C 11.6705707380554 12.9803047194352  11.5898865960216 13.0011148272018  11.5013943112103 13.0011148272018  C 11.4441345975088 13.0011148272018  11.3816694552891 12.9881085098476  11.313998884551 12.9620958751394  L 7.19910764082543 11.2842809364549  L 4.87228109313999 13.8361204013378  C 4.77858337981037 13.9453734671126  4.65625580963004 14  4.505298382599 14  C 4.43242238334263 14  4.37255995538204 13.9895949461167  4.32571109871723 13.9687848383501  C 4.22680795686931 13.9323671497585  4.14872652909463 13.871237458194  4.0914668153932 13.7853957636566  C 4.03420710169176 13.6995540691193  4.00557724484105 13.604607952434  4.00557724484105 13.5005574136009  L 4.00557724484105 9.97324414715719  L 0.320133853876185 8.46711259754738  C 0.127532998698643 8.39427722036418  0.0234244283324038 8.2512077294686  0.00780814277746793 8.03790412486065  C -0.00780814277746793 7.83500557413601  0.0754787135155233 7.68153102935712  0.257668711656442 7.57748049052397  L 13.2504182933631 0.0858416945373461  Z M 7.26938092582264 10.2307692307692  L 11.1109871723369 11.7993311036789  L 12.8365867261573 1.47491638795987  L 1.63970998326827 7.92865105908584  L 4.26324595649749 8.99777034559643  L 11.0016731734523 4.01114827201784  L 7.26938092582264 10.2307692307692  Z " fill-rule="nonzero" fill="#1989fa" stroke="none" transform="matrix(1 0 0 1 334 92 )" />
  </g>
</svg>