<?xml version="1.0" encoding="utf-8"?>
<svg version="1.1" xmlns:xlink="http://www.w3.org/1999/xlink" width="174px" height="120px" xmlns="http://www.w3.org/2000/svg">
  <g transform="matrix(1 0 0 1 -107 -101 )">
    <path d="M 108 109  A 7 7 0 0 1 115 102 L 273 102  A 7 7 0 0 1 280 109 L 280 213  A 7 7 0 0 1 273 220 L 115 220  A 7 7 0 0 1 108 213 L 108 109  Z " fill-rule="nonzero" fill="#000000" stroke="none" fill-opacity="0.698039215686274" />
    <path d="M 107.5 109  A 7.5 7.5 0 0 1 115 101.5 L 273 101.5  A 7.5 7.5 0 0 1 280.5 109 L 280.5 213  A 7.5 7.5 0 0 1 273 220.5 L 115 220.5  A 7.5 7.5 0 0 1 107.5 213 L 107.5 109  Z " stroke-width="1" stroke="#000000" fill="none" stroke-opacity="0.698039215686274" />
  </g>
</svg>