<?xml version="1.0" encoding="utf-8"?>
<svg version="1.1" xmlns:xlink="http://www.w3.org/1999/xlink" width="21px" height="20px" xmlns="http://www.w3.org/2000/svg">
  <g transform="matrix(1 0 0 1 -341 -11 )">
    <path d="M 1.61538461538462 15.3571428571429  L 1.61538461538462 18.5714285714286  L 5.25 18.5714285714286  L 5.25 15.3571428571429  L 1.61538461538462 15.3571428571429  Z M 6.05769230769231 15.3571428571429  L 6.05769230769231 18.5714285714286  L 10.0961538461538 18.5714285714286  L 10.0961538461538 15.3571428571429  L 6.05769230769231 15.3571428571429  Z M 1.61538461538462 11.0714285714286  L 1.61538461538462 14.6428571428571  L 5.25 14.6428571428571  L 5.25 11.0714285714286  L 1.61538461538462 11.0714285714286  Z M 6.05769230769231 11.0714285714286  L 6.05769230769231 14.6428571428571  L 10.0961538461538 14.6428571428571  L 10.0961538461538 11.0714285714286  L 6.05769230769231 11.0714285714286  Z M 1.61538461538462 7.14285714285714  L 1.61538461538462 10.3571428571429  L 5.25 10.3571428571429  L 5.25 7.14285714285714  L 1.61538461538462 7.14285714285714  Z M 10.9038461538462 15.3571428571429  L 10.9038461538462 18.5714285714286  L 14.9423076923077 18.5714285714286  L 14.9423076923077 15.3571428571429  L 10.9038461538462 15.3571428571429  Z M 6.05769230769231 7.14285714285714  L 6.05769230769231 10.3571428571429  L 10.0961538461538 10.3571428571429  L 10.0961538461538 7.14285714285714  L 6.05769230769231 7.14285714285714  Z M 15.75 15.3571428571429  L 15.75 18.5714285714286  L 19.3846153846154 18.5714285714286  L 19.3846153846154 15.3571428571429  L 15.75 15.3571428571429  Z M 10.9038461538462 11.0714285714286  L 10.9038461538462 14.6428571428571  L 14.9423076923077 14.6428571428571  L 14.9423076923077 11.0714285714286  L 10.9038461538462 11.0714285714286  Z M 6.34164663461538 5.25111607142857  C 6.42157451923077 5.18043154761905  6.46153846153846 5.09672619047619  6.46153846153846 5  L 6.46153846153846 1.78571428571429  C 6.46153846153846 1.6889880952381  6.42157451923077 1.60528273809524  6.34164663461538 1.53459821428571  C 6.26171875 1.46391369047619  6.16706730769231 1.42857142857143  6.05769230769231 1.42857142857143  L 5.25 1.42857142857143  C 5.140625 1.42857142857143  5.04597355769231 1.46391369047619  4.96604567307692 1.53459821428571  C 4.88611778846154 1.60528273809524  4.84615384615385 1.6889880952381  4.84615384615385 1.78571428571429  L 4.84615384615385 5  C 4.84615384615385 5.09672619047619  4.88611778846154 5.18043154761905  4.96604567307692 5.25111607142857  C 5.04597355769231 5.32180059523809  5.140625 5.35714285714286  5.25 5.35714285714286  L 6.05769230769231 5.35714285714286  C 6.16706730769231 5.35714285714286  6.26171875 5.32180059523809  6.34164663461538 5.25111607142857  Z M 15.75 11.0714285714286  L 15.75 14.6428571428571  L 19.3846153846154 14.6428571428571  L 19.3846153846154 11.0714285714286  L 15.75 11.0714285714286  Z M 10.9038461538462 7.14285714285714  L 10.9038461538462 10.3571428571429  L 14.9423076923077 10.3571428571429  L 14.9423076923077 7.14285714285714  L 10.9038461538462 7.14285714285714  Z M 15.75 7.14285714285714  L 15.75 10.3571428571429  L 19.3846153846154 10.3571428571429  L 19.3846153846154 7.14285714285714  L 15.75 7.14285714285714  Z M 16.0339543269231 5.25111607142857  C 16.1138822115385 5.18043154761905  16.1538461538462 5.09672619047619  16.1538461538462 5  L 16.1538461538462 1.78571428571429  C 16.1538461538462 1.6889880952381  16.1138822115385 1.60528273809524  16.0339543269231 1.53459821428571  C 15.9540264423077 1.46391369047619  15.859375 1.42857142857143  15.75 1.42857142857143  L 14.9423076923077 1.42857142857143  C 14.8329326923077 1.42857142857143  14.73828125 1.46391369047619  14.6583533653846 1.53459821428571  C 14.5784254807692 1.60528273809524  14.5384615384615 1.6889880952381  14.5384615384615 1.78571428571429  L 14.5384615384615 5  C 14.5384615384615 5.09672619047619  14.5784254807692 5.18043154761905  14.6583533653846 5.25111607142857  C 14.73828125 5.32180059523809  14.8329326923077 5.35714285714286  14.9423076923077 5.35714285714286  L 15.75 5.35714285714286  C 15.859375 5.35714285714286  15.9540264423077 5.32180059523809  16.0339543269231 5.25111607142857  Z M 20.5204326923077 3.28125  C 20.8401442307692 3.5639880952381  21 3.89880952380952  21 4.28571428571429  L 21 18.5714285714286  C 21 18.9583333333333  20.8401442307692 19.2931547619048  20.5204326923077 19.5758928571429  C 20.2007211538462 19.858630952381  19.8221153846154 20  19.3846153846154 20  L 1.61538461538462 20  C 1.17788461538462 20  0.799278846153846 19.858630952381  0.479567307692308 19.5758928571429  C 0.159855769230769 19.2931547619048  0 18.9583333333333  0 18.5714285714286  L 0 4.28571428571429  C 0 3.89880952380952  0.159855769230769 3.5639880952381  0.479567307692308 3.28125  C 0.799278846153846 2.9985119047619  1.17788461538462 2.85714285714286  1.61538461538462 2.85714285714286  L 3.23076923076923 2.85714285714286  L 3.23076923076923 1.78571428571429  C 3.23076923076923 1.29464285714286  3.42848557692308 0.874255952380951  3.82391826923077 0.524553571428572  C 4.21935096153846 0.174851190476191  4.69471153846154 0  5.25 0  L 6.05769230769231 0  C 6.61298076923077 0  7.08834134615385 0.174851190476191  7.48377403846154 0.524553571428572  C 7.87920673076923 0.874255952380951  8.07692307692308 1.29464285714286  8.07692307692308 1.78571428571429  L 8.07692307692308 2.85714285714286  L 12.9230769230769 2.85714285714286  L 12.9230769230769 1.78571428571429  C 12.9230769230769 1.29464285714286  13.1207932692308 0.874255952380951  13.5162259615385 0.524553571428572  C 13.9116586538462 0.174851190476191  14.3870192307692 0  14.9423076923077 0  L 15.75 0  C 16.3052884615385 0  16.7806490384615 0.174851190476191  17.1760817307692 0.524553571428572  C 17.5715144230769 0.874255952380951  17.7692307692308 1.29464285714286  17.7692307692308 1.78571428571429  L 17.7692307692308 2.85714285714286  L 19.3846153846154 2.85714285714286  C 19.8221153846154 2.85714285714286  20.2007211538462 2.9985119047619  20.5204326923077 3.28125  Z " fill-rule="nonzero" fill="#02a7f0" stroke="none" transform="matrix(1 0 0 1 341 11 )" />
  </g>
</svg>