<?xml version="1.0" encoding="utf-8"?>
<svg version="1.1" xmlns:xlink="http://www.w3.org/1999/xlink" width="22px" height="22px" xmlns="http://www.w3.org/2000/svg">
  <g transform="matrix(1 0 0 1 -68 -179 )">
    <path d="M 79 179  C 85.16 179  90 183.84  90 190  C 90 196.16  85.16 201  79 201  C 72.84 201  68 196.16  68 190  C 68 183.84  72.84 179  79 179  Z " fill-rule="nonzero" fill="#1989fa" stroke="none" />
    <path d="M 79 179.5  C 84.88 179.5  89.5 184.12  89.5 190  C 89.5 195.88  84.88 200.5  79 200.5  C 73.12 200.5  68.5 195.88  68.5 190  C 68.5 184.12  73.12 179.5  79 179.5  Z " stroke-width="1" stroke="#1989fa" fill="none" />
  </g>
</svg>