<?xml version="1.0" encoding="utf-8"?>
<svg version="1.1" xmlns:xlink="http://www.w3.org/1999/xlink" width="415px" height="162px" xmlns="http://www.w3.org/2000/svg">
  <defs>
    <mask fill="white" id="clip31">
      <path d="M 0 16.7500005674606  C 0 16.7500005674606  1.11122179238123 9.86537942017014  6.25 5.25  C 11.6635848043666 0.387803795778609  19.0000000062096 0  19.0000000062096 0  L 355.24999923284 0  C 355.24999923284 0  362.759857628239 0.344374232195719  368.5 5.25  C 373.645974177625 9.64783926796042  375 16.2500018541604  375 16.2500018541604  L 375 122  L 0 122  L 0 16.7500005674606  Z " fill-rule="evenodd" />
    </mask>
    <filter x="-20px" y="-15px" width="415px" height="162px" filterUnits="userSpaceOnUse" id="filter32">
      <feOffset dx="0" dy="5" in="SourceAlpha" result="shadowOffsetInner" />
      <feGaussianBlur stdDeviation="10" in="shadowOffsetInner" result="shadowGaussian" />
      <feComposite in2="shadowGaussian" operator="atop" in="SourceAlpha" result="shadowComposite" />
      <feColorMatrix type="matrix" values="0 0 0 0 0.6  0 0 0 0 0.6  0 0 0 0 0.6  0 0 0 0.2 0  " in="shadowComposite" />
    </filter>
    <g id="widget33">
      <path d="M 0 16.7500005674606  C 0 16.7500005674606  1.11122179238123 9.86537942017014  6.25 5.25  C 11.6635848043666 0.387803795778609  19.0000000062096 0  19.0000000062096 0  L 355.24999923284 0  C 355.24999923284 0  362.759857628239 0.344374232195719  368.5 5.25  C 373.645974177625 9.64783926796042  375 16.2500018541604  375 16.2500018541604  L 375 122  L 0 122  L 0 16.7500005674606  Z " fill-rule="nonzero" fill="#ffffff" stroke="none" />
      <path d="M 0 16.7500005674606  C 0 16.7500005674606  1.11122179238123 9.86537942017014  6.25 5.25  C 11.6635848043666 0.387803795778609  19.0000000062096 0  19.0000000062096 0  L 355.24999923284 0  C 355.24999923284 0  362.759857628239 0.344374232195719  368.5 5.25  C 373.645974177625 9.64783926796042  375 16.2500018541604  375 16.2500018541604  L 375 122  L 0 122  L 0 16.7500005674606  Z " stroke-width="2" stroke="#ffffff" fill="none" mask="url(#clip31)" />
    </g>
  </defs>
  <g transform="matrix(1 0 0 1 20 15 )">
    <use xlink:href="#widget33" filter="url(#filter32)" />
    <use xlink:href="#widget33" />
  </g>
</svg>