<?xml version="1.0" encoding="utf-8"?>
<svg version="1.1" xmlns:xlink="http://www.w3.org/1999/xlink" width="14px" height="14px" xmlns="http://www.w3.org/2000/svg">
  <g transform="matrix(1 0 0 1 -340 -15 )">
    <path d="M 13.7834254143646 12.6541436464088  L 8.11381215469612 6.98453038674035  L 13.7834254143646 1.31491712707185  C 14.0696132596685 1.02872928176794  14.0696132596685 0.55690607734806  13.7834254143646 0.270718232044203  L 13.7524861878453 0.239779005524838  C 13.4662983425414 -0.0464088397790192  12.9944751381215 -0.0464088397790192  12.7082872928177 0.239779005524838  L 7.03867403314916 5.91712707182319  L 1.36906077348067 0.239779005524838  C 1.08287292817681 -0.0464088397790192  0.611049723756878 -0.0464088397790192  0.324861878453021 0.239779005524838  L 0.293922651933713 0.270718232044203  C 0 0.55690607734806  0 1.02872928176794  0.293922651933713 1.31491712707185  L 5.96353591160221 6.98453038674035  L 0.293922651933713 12.6541436464088  C 0.00773480662985548 12.9403314917127  0.00773480662985548 13.4121546961326  0.293922651933713 13.6983425414365  L 0.324861878453021 13.7292817679558  C 0.611049723756878 14.0154696132597  1.08287292817681 14.0154696132597  1.36906077348067 13.7292817679558  L 7.03867403314916 8.0596685082873  L 12.7082872928177 13.7292817679558  C 12.9944751381215 14.0154696132597  13.4662983425414 14.0154696132597  13.7524861878453 13.7292817679558  L 13.7834254143646 13.6983425414365  C 14.0696132596685 13.4121546961326  14.0696132596685 12.9403314917127  13.7834254143646 12.6541436464088  Z " fill-rule="nonzero" fill="#969799" stroke="none" transform="matrix(1 0 0 1 340 15 )" />
  </g>
</svg>